<svg xmlns="http://www.w3.org/2000/svg" xmlns:xlink="http://www.w3.org/1999/xlink" width="48" zoomAndPan="magnify" viewBox="0 0 36 36.000001" height="48" preserveAspectRatio="xMidYMid meet" version="1.0"><defs><clipPath id="91ccb848ea"><path d="M 0.488281 0 L 35.511719 0 L 35.511719 35.027344 L 0.488281 35.027344 Z M 0.488281 0 " clip-rule="nonzero"/></clipPath><clipPath id="5a37dd149e"><path d="M 25 9 L 35.511719 9 L 35.511719 20 L 25 20 Z M 25 9 " clip-rule="nonzero"/></clipPath><clipPath id="f66fd0398f"><path d="M 0.488281 11 L 35.511719 11 L 35.511719 30 L 0.488281 30 Z M 0.488281 11 " clip-rule="nonzero"/></clipPath></defs><g clip-path="url(#91ccb848ea)"><path fill="#2c578f" d="M 35.511719 17.511719 C 35.511719 18.085938 35.484375 18.660156 35.429688 19.230469 C 35.371094 19.800781 35.289062 20.367188 35.175781 20.929688 C 35.066406 21.492188 34.925781 22.046875 34.757812 22.597656 C 34.59375 23.144531 34.398438 23.6875 34.179688 24.214844 C 33.960938 24.746094 33.714844 25.261719 33.445312 25.769531 C 33.175781 26.273438 32.878906 26.765625 32.5625 27.242188 C 32.242188 27.71875 31.902344 28.179688 31.539062 28.625 C 31.175781 29.066406 30.789062 29.492188 30.382812 29.898438 C 29.976562 30.304688 29.554688 30.6875 29.109375 31.050781 C 28.667969 31.414062 28.207031 31.757812 27.730469 32.074219 C 27.253906 32.394531 26.761719 32.6875 26.253906 32.960938 C 25.75 33.230469 25.230469 33.472656 24.703125 33.695312 C 24.171875 33.914062 23.632812 34.105469 23.082031 34.273438 C 22.535156 34.4375 21.980469 34.578125 21.417969 34.691406 C 20.855469 34.800781 20.289062 34.886719 19.714844 34.941406 C 19.144531 35 18.574219 35.027344 18 35.027344 C 17.425781 35.027344 16.855469 35 16.285156 34.941406 C 15.710938 34.886719 15.144531 34.800781 14.582031 34.691406 C 14.019531 34.578125 13.464844 34.4375 12.917969 34.273438 C 12.367188 34.105469 11.828125 33.914062 11.296875 33.695312 C 10.769531 33.472656 10.25 33.230469 9.746094 32.960938 C 9.238281 32.6875 8.746094 32.394531 8.269531 32.074219 C 7.792969 31.757812 7.332031 31.414062 6.890625 31.050781 C 6.445312 30.6875 6.023438 30.304688 5.617188 29.898438 C 5.210938 29.492188 4.824219 29.066406 4.460938 28.625 C 4.097656 28.179688 3.757812 27.71875 3.4375 27.242188 C 3.121094 26.765625 2.824219 26.273438 2.554688 25.769531 C 2.285156 25.261719 2.039062 24.746094 1.820312 24.214844 C 1.601562 23.6875 1.40625 23.144531 1.242188 22.597656 C 1.074219 22.046875 0.933594 21.492188 0.824219 20.929688 C 0.710938 20.367188 0.628906 19.800781 0.570312 19.230469 C 0.515625 18.660156 0.488281 18.085938 0.488281 17.511719 C 0.488281 16.941406 0.515625 16.367188 0.570312 15.796875 C 0.628906 15.226562 0.710938 14.660156 0.824219 14.097656 C 0.933594 13.535156 1.074219 12.976562 1.242188 12.429688 C 1.40625 11.878906 1.601562 11.339844 1.820312 10.8125 C 2.039062 10.28125 2.285156 9.761719 2.554688 9.257812 C 2.824219 8.75 3.121094 8.261719 3.4375 7.785156 C 3.757812 7.304688 4.097656 6.847656 4.460938 6.402344 C 4.824219 5.960938 5.210938 5.535156 5.617188 5.128906 C 6.023438 4.722656 6.445312 4.339844 6.890625 3.976562 C 7.332031 3.613281 7.792969 3.269531 8.269531 2.953125 C 8.746094 2.632812 9.238281 2.339844 9.746094 2.066406 C 10.25 1.796875 10.769531 1.550781 11.296875 1.332031 C 11.828125 1.113281 12.367188 0.921875 12.917969 0.753906 C 13.464844 0.585938 14.019531 0.449219 14.582031 0.335938 C 15.144531 0.226562 15.710938 0.140625 16.285156 0.0859375 C 16.855469 0.0273438 17.425781 0 18 0 C 18.574219 0 19.144531 0.0273438 19.714844 0.0859375 C 20.289062 0.140625 20.855469 0.226562 21.417969 0.335938 C 21.980469 0.449219 22.535156 0.585938 23.082031 0.753906 C 23.632812 0.921875 24.171875 1.113281 24.703125 1.332031 C 25.230469 1.550781 25.75 1.796875 26.253906 2.066406 C 26.761719 2.339844 27.253906 2.632812 27.730469 2.953125 C 28.207031 3.269531 28.667969 3.613281 29.109375 3.976562 C 29.554688 4.339844 29.976562 4.722656 30.382812 5.128906 C 30.789062 5.535156 31.175781 5.960938 31.539062 6.402344 C 31.902344 6.847656 32.242188 7.304688 32.5625 7.785156 C 32.878906 8.261719 33.175781 8.75 33.445312 9.257812 C 33.714844 9.761719 33.960938 10.28125 34.179688 10.8125 C 34.398438 11.339844 34.59375 11.878906 34.757812 12.429688 C 34.925781 12.976562 35.066406 13.535156 35.175781 14.097656 C 35.289062 14.660156 35.371094 15.226562 35.429688 15.796875 C 35.484375 16.367188 35.511719 16.941406 35.511719 17.511719 Z M 35.511719 17.511719 " fill-opacity="1" fill-rule="nonzero"/></g><path stroke-linecap="butt" transform="matrix(0.636245, -0.0278602, 0.0278602, 0.636245, -0.042937, 0.781215)" fill="none" stroke-linejoin="miter" d="M 29.611995 19.604809 C 29.612444 19.874968 29.558548 20.124329 29.461758 20.371812 C 29.358839 20.619026 29.214368 20.833723 29.028076 21.022031 C 28.835656 21.21007 28.620604 21.354141 28.37679 21.453977 C 28.132977 21.553812 27.879054 21.604089 27.608895 21.604538 C 27.344864 21.605255 27.089107 21.557219 26.84802 21.454569 C 26.600806 21.351651 26.386109 21.20718 26.197801 21.020888 C 26.009493 20.834596 25.865422 20.619543 25.765855 20.369602 C 25.659892 20.12552 25.609615 19.871597 25.608898 19.607566 C 25.60818 19.343535 25.662344 19.088046 25.765262 18.840832 C 25.861784 18.599477 26.006524 18.378652 26.198944 18.190613 C 26.385236 18.002305 26.600289 17.858234 26.844102 17.758398 C 27.087916 17.658563 27.347966 17.608555 27.611997 17.607837 C 27.876029 17.607119 28.131786 17.655156 28.379 17.758074 C 28.620086 17.860724 28.834783 18.005195 29.023091 18.191487 C 29.211399 18.377779 29.355202 18.59896 29.461165 18.843042 C 29.561001 19.086855 29.611277 19.340777 29.611995 19.604809 Z M 29.611995 19.604809 " stroke="#ffffff" stroke-width="1" stroke-opacity="1" stroke-miterlimit="4"/><g clip-path="url(#5a37dd149e)"><path stroke-linecap="butt" transform="matrix(0.636245, -0.0278602, 0.0278602, 0.636245, -0.113825, 1.312363)" fill="none" stroke-linejoin="miter" d="M 48.613958 22.567453 C 48.608547 22.831216 48.560511 23.086973 48.457593 23.334187 C 48.354943 23.575274 48.210204 23.796099 48.02418 23.978279 C 47.837888 24.166586 47.622835 24.310658 47.378753 24.416621 C 47.128812 24.516188 46.874889 24.566465 46.610858 24.567182 C 46.346827 24.5679 46.091338 24.513736 45.843855 24.416945 C 45.602769 24.314295 45.381944 24.169556 45.193636 23.983264 C 45.011725 23.791112 44.867653 23.576059 44.76169 23.331978 C 44.661855 23.088164 44.611578 22.834242 44.611129 22.564083 C 44.610411 22.300051 44.664576 22.044562 44.761098 21.803208 C 44.864016 21.555993 45.008487 21.341296 45.194779 21.152989 C 45.387199 20.964949 45.602252 20.820878 45.846065 20.721042 C 46.090147 20.615079 46.344069 20.564803 46.608101 20.564085 C 46.877992 20.569764 47.133749 20.6178 47.374835 20.72045 C 47.622049 20.823368 47.836746 20.967839 48.025054 21.154131 C 48.213362 21.340423 48.357433 21.555476 48.457269 21.79929 C 48.562964 22.049499 48.61324 22.303422 48.613958 22.567453 Z M 48.613958 22.567453 " stroke="#ffffff" stroke-width="1" stroke-opacity="1" stroke-miterlimit="4"/></g><path stroke-linecap="butt" transform="matrix(0.636245, -0.0278602, 0.0278602, 0.636245, -0.109133, 0.253065)" fill="none" stroke-linejoin="miter" d="M 10.609816 21.567487 C 10.610534 21.831519 10.562497 22.087276 10.459579 22.33449 C 10.356929 22.575577 10.21219 22.796401 10.026166 22.978581 C 9.839874 23.166889 9.618693 23.310692 9.374612 23.416655 C 9.130798 23.516491 8.876876 23.566767 8.612844 23.567485 C 8.342685 23.567934 8.093324 23.514038 7.845842 23.417248 C 7.598627 23.31433 7.38393 23.169859 7.195623 22.983566 C 7.007583 22.791146 6.863512 22.576094 6.763676 22.33228 C 6.663841 22.088467 6.613565 21.834544 6.613115 21.564385 C 6.612398 21.300354 6.660434 21.044597 6.763084 20.80351 C 6.866002 20.556296 7.010473 20.341599 7.196765 20.153291 C 7.383057 19.964984 7.59811 19.820912 7.848052 19.721345 C 8.092133 19.615382 8.346056 19.565105 8.610087 19.564388 C 8.87385 19.569798 9.129607 19.617834 9.376821 19.720753 C 9.624036 19.823671 9.838733 19.968142 10.02704 20.154434 C 10.215348 20.340726 10.35942 20.555779 10.459255 20.799592 C 10.558822 21.049534 10.609099 21.303456 10.609816 21.567487 Z M 10.609816 21.567487 " stroke="#ffffff" stroke-width="1" stroke-opacity="1" stroke-miterlimit="4"/><g clip-path="url(#f66fd0398f)"><path stroke-linecap="butt" transform="matrix(0.636855, 0, 0, 0.636855, 0.486486, 0.00000194595)" fill="none" stroke-linejoin="miter" d="M 9.681729 27.2457 C 9.681729 27.2457 10.117219 26.871546 10.178555 26.834745 M 9.681729 27.2457 C 6.050604 26.025102 2.861103 27.018754 3.002177 28.5215 C 3.143251 30.024246 4.498789 31.024032 5.498575 30.521072 C 6.498361 30.024246 8.074711 28.331357 9.681729 27.2457 Z M 14.502783 29.45995 C 14.51505 29.472217 18.005101 32.465441 18.501927 33.962053 C 19.004887 35.458666 18.501927 38.960984 18.005101 38.960984 C 17.502141 38.960984 14.005957 34.45888 13.502997 34.45888 C 13.006171 34.45888 13.502997 38.458024 13.502997 38.960984 C 13.502997 39.45781 12.503211 38.960984 12.503211 38.960984 C 8.890487 36.378714 9.007027 31.962481 9.007027 31.962481 M 14.502783 29.45995 L 17.005315 31.962481 M 14.502783 29.45995 L 10.178555 26.834745 M 27.506135 24.197272 C 30.002533 25.313598 32.21065 27.558516 33.425114 30.784819 M 27.506135 24.197272 C 25.488162 25.963765 24.028352 27.681189 23.004031 30.698948 C 22.182121 35.213319 21.789567 37.077951 24.506777 39.45781 C 26.199666 39.862631 25.972721 36.004561 26.003389 34.45888 C 26.034057 32.919332 27.125848 31.643531 28.002961 31.962481 C 29.456638 31.471789 30.223345 36.047497 30.505493 37.961198 C 30.787641 39.874898 32.590936 41.408313 33.517119 37.912128 M 27.506135 24.197272 C 30.554562 23.596174 31.818096 22.909204 34.504637 22.958274 C 39.080345 23.283357 40.963378 24.252475 43.827795 26.669136 L 44.815314 27.215031 M 27.506135 24.197272 C 25.028138 23.099348 16.177271 22.473715 10.178555 26.834745 M 33.504851 30.962695 C 33.480317 30.901359 33.455782 30.840022 33.425114 30.784819 M 33.504851 37.961198 C 33.504851 37.961198 34.001677 35.961626 34.001677 34.45888 C 34.001677 32.962267 33.425114 30.784819 33.425114 30.784819 M 44.999324 27.31317 C 45.502284 27.81613 47.998682 30.502671 47.998682 30.502671 C 47.998682 30.502671 49.851046 32.680119 51.347658 31.680333 C 52.850404 30.680547 52.132766 28.668708 51.501 28.214817 C 50.863099 27.760927 49.501428 27.215031 47.998682 27.215031 C 46.814886 27.270234 46.630876 27.055556 44.815314 27.215031 M 44.999324 27.31317 C 42.484524 28.748445 39.932923 30.527206 38.503781 32.962267 C 37.197312 36.041363 36.357002 38.329217 38.006955 38.960984 C 39.650775 39.59275 39.178484 37.611579 41.503139 35.458666 C 41.503139 35.458666 42.502925 33.962053 43.005885 34.45888 C 43.502711 34.96184 43.490444 36.004561 43.2819 36.679263 M 44.999324 27.31317 L 44.815314 27.215031 M 43.367771 36.458452 C 42.840277 37.81399 42.006099 39.45781 43.502711 39.45781 C 45.005457 39.45781 45.95004 35.673344 46.005243 33.459094 " stroke="#ffffff" stroke-width="1" stroke-opacity="1" stroke-miterlimit="4"/></g></svg>