<svg xmlns="http://www.w3.org/2000/svg" xmlns:xlink="http://www.w3.org/1999/xlink" width="40" zoomAndPan="magnify" viewBox="0 0 30 30.000001" height="40" preserveAspectRatio="xMidYMid meet" version="1.0"><defs><clipPath id="0dcb79128e"><path d="M 0.484375 0 L 29.515625 0 L 29.515625 29.03125 L 0.484375 29.03125 Z M 0.484375 0 " clip-rule="nonzero"/></clipPath><clipPath id="016828284b"><path d="M 21 7 L 29.515625 7 L 29.515625 16 L 21 16 Z M 21 7 " clip-rule="nonzero"/></clipPath><clipPath id="2c13fd4a38"><path d="M 0.484375 7 L 10 7 L 10 16 L 0.484375 16 Z M 0.484375 7 " clip-rule="nonzero"/></clipPath><clipPath id="429d676eba"><path d="M 0.484375 9 L 29.515625 9 L 29.515625 25 L 0.484375 25 Z M 0.484375 9 " clip-rule="nonzero"/></clipPath></defs><g clip-path="url(#0dcb79128e)"><path fill="#2c578f" d="M 29.515625 14.515625 C 29.515625 15.46875 29.421875 16.414062 29.238281 17.347656 C 29.050781 18.28125 28.777344 19.191406 28.410156 20.070312 C 28.046875 20.953125 27.597656 21.789062 27.070312 22.582031 C 26.539062 23.375 25.9375 24.105469 25.265625 24.78125 C 24.589844 25.453125 23.855469 26.054688 23.066406 26.585938 C 22.273438 27.117188 21.4375 27.5625 20.554688 27.925781 C 19.675781 28.292969 18.765625 28.566406 17.832031 28.753906 C 16.898438 28.9375 15.953125 29.03125 15 29.03125 C 14.046875 29.03125 13.101562 28.9375 12.167969 28.753906 C 11.234375 28.566406 10.324219 28.292969 9.445312 27.925781 C 8.5625 27.5625 7.726562 27.117188 6.933594 26.585938 C 6.144531 26.054688 5.410156 25.453125 4.734375 24.78125 C 4.0625 24.105469 3.460938 23.375 2.929688 22.582031 C 2.402344 21.789062 1.953125 20.953125 1.589844 20.070312 C 1.222656 19.191406 0.949219 18.28125 0.761719 17.347656 C 0.578125 16.414062 0.484375 15.46875 0.484375 14.515625 C 0.484375 13.5625 0.578125 12.617188 0.761719 11.683594 C 0.949219 10.75 1.222656 9.839844 1.589844 8.960938 C 1.953125 8.082031 2.402344 7.242188 2.929688 6.453125 C 3.460938 5.660156 4.0625 4.925781 4.734375 4.25 C 5.410156 3.578125 6.144531 2.976562 6.933594 2.445312 C 7.726562 1.917969 8.5625 1.46875 9.445312 1.105469 C 10.324219 0.738281 11.234375 0.464844 12.167969 0.277344 C 13.101562 0.09375 14.046875 0 15 0 C 15.953125 0 16.898438 0.09375 17.832031 0.277344 C 18.765625 0.464844 19.675781 0.738281 20.554688 1.105469 C 21.4375 1.46875 22.273438 1.917969 23.066406 2.445312 C 23.855469 2.976562 24.589844 3.578125 25.265625 4.25 C 25.9375 4.925781 26.539062 5.660156 27.070312 6.453125 C 27.597656 7.242188 28.046875 8.082031 28.410156 8.960938 C 28.777344 9.839844 29.050781 10.75 29.238281 11.683594 C 29.421875 12.617188 29.515625 13.5625 29.515625 14.515625 Z M 29.515625 14.515625 " fill-opacity="1" fill-rule="nonzero"/></g><path stroke-linecap="butt" transform="matrix(0.527354, -0.023092, 0.023092, 0.527354, 0.0450566, 0.647512)" fill="none" stroke-linejoin="miter" d="M 29.610874 19.609125 C 29.614005 19.875923 29.55864 20.125346 29.458916 20.372826 C 29.359192 20.620306 29.209012 20.835948 29.02316 21.020399 C 28.836986 21.212243 28.623504 21.35104 28.374677 21.451253 C 28.132918 21.559183 27.878963 21.607321 27.612164 21.610453 C 27.34569 21.606192 27.08855 21.557896 26.848463 21.458495 C 26.601306 21.351378 26.385341 21.208591 26.193497 21.022416 C 26.009046 20.836565 25.86318 20.615367 25.762643 20.373932 C 25.66243 20.125104 25.614292 19.871149 25.61116 19.604351 C 25.607704 19.344945 25.663394 19.088129 25.763117 18.840649 C 25.862841 18.593169 26.013022 18.377527 26.198873 18.193076 C 26.384724 18.008626 26.598529 17.862435 26.847357 17.762222 C 27.089116 17.654292 27.343071 17.606154 27.609545 17.610416 C 27.876344 17.607284 28.133484 17.65558 28.373247 17.762373 C 28.620727 17.862097 28.836693 18.004884 29.028536 18.191059 C 29.212987 18.376911 29.358854 18.598108 29.459391 18.839543 C 29.559604 19.088371 29.607742 19.342326 29.610874 19.609125 Z M 29.610874 19.609125 " stroke="#ffffff" stroke-width="1" stroke-opacity="1" stroke-miterlimit="4"/><g clip-path="url(#016828284b)"><path stroke-linecap="butt" transform="matrix(0.527354, -0.023092, 0.023092, 0.527354, -0.0136989, 1.087756)" fill="none" stroke-linejoin="miter" d="M 48.61452 22.569354 C 48.610259 22.835829 48.562287 23.085575 48.45517 23.332731 C 48.355446 23.580212 48.212658 23.796177 48.026807 23.980628 C 47.840632 24.172472 47.619758 24.310945 47.378323 24.411482 C 47.129172 24.519088 46.875217 24.567226 46.608418 24.570358 C 46.349336 24.566421 46.092197 24.518125 45.844717 24.418401 C 45.59756 24.311284 45.381595 24.168496 45.197144 23.982645 C 45.012693 23.796794 44.866826 23.575596 44.76629 23.334161 C 44.658683 23.085009 44.610545 22.831055 44.614807 22.56458 C 44.611351 22.305174 44.659647 22.048035 44.766764 21.800878 C 44.866488 21.553398 45.009276 21.337432 45.195127 21.152982 C 45.380978 20.968531 45.602176 20.822664 45.843611 20.722127 C 46.092762 20.614521 46.346717 20.566383 46.613192 20.570644 C 46.872598 20.567189 47.129737 20.615485 47.376894 20.722602 C 47.624374 20.822326 47.840339 20.965113 48.02479 21.150965 C 48.209241 21.336816 48.355108 21.558014 48.455644 21.799448 C 48.563251 22.0486 48.611389 22.302555 48.61452 22.569354 Z M 48.61452 22.569354 " stroke="#ffffff" stroke-width="1" stroke-opacity="1" stroke-miterlimit="4"/></g><g clip-path="url(#2c13fd4a38)"><path stroke-linecap="butt" transform="matrix(0.527354, -0.023092, 0.023092, 0.527354, -0.0098098, 0.209754)" fill="none" stroke-linejoin="miter" d="M 10.607196 21.570012 C 10.610651 21.829417 10.562355 22.086557 10.455238 22.333713 C 10.355838 22.5738 10.212727 22.797159 10.026876 22.98161 C 9.841024 23.16606 9.619827 23.311927 9.378392 23.412464 C 9.129564 23.512677 8.875285 23.568208 8.60881 23.563947 C 8.349405 23.567402 8.092265 23.519106 7.845109 23.411989 C 7.597629 23.312265 7.381663 23.169478 7.197212 22.983627 C 7.013085 22.790382 6.866895 22.576578 6.766358 22.335143 C 6.658752 22.085991 6.610614 21.832036 6.607482 21.565238 C 6.611743 21.298763 6.659716 21.049016 6.766833 20.80186 C 6.866557 20.55438 7.009344 20.338414 7.195195 20.153963 C 7.38137 19.96212 7.602244 19.823646 7.844003 19.715716 C 8.092831 19.615503 8.346786 19.567365 8.613584 19.564233 C 8.872666 19.568171 9.129806 19.616467 9.377286 19.716191 C 9.624442 19.823308 9.840408 19.966095 10.024859 20.151946 C 10.209309 20.337798 10.355176 20.558995 10.455713 20.80043 C 10.563319 21.049582 10.611457 21.303537 10.607196 21.570012 Z M 10.607196 21.570012 " stroke="#ffffff" stroke-width="1" stroke-opacity="1" stroke-miterlimit="4"/></g><g clip-path="url(#429d676eba)"><path stroke-linecap="butt" transform="matrix(0.527859, 0, 0, 0.527859, 0.48387, 0.00000193548)" fill="none" stroke-linejoin="miter" d="M 9.680383 27.247435 C 9.680383 27.247435 10.116993 26.877427 10.176194 26.833026 M 9.680383 27.247435 C 6.046898 26.026407 2.857423 27.01803 2.998026 28.520265 C 3.138629 30.029901 4.500261 31.021524 5.499285 30.525712 C 6.498308 30.022501 8.074545 28.335261 9.680383 27.247435 Z M 14.505296 29.460087 C 14.512696 29.467488 18.005578 32.464558 18.50139 33.959393 C 19.004602 35.461628 18.50139 38.96191 18.005578 38.96191 C 17.502366 38.96191 14.002084 34.462605 13.506273 34.462605 C 13.003061 34.462605 13.506273 38.458698 13.506273 38.96191 C 13.506273 39.457722 12.507249 38.96191 12.507249 38.96191 C 8.888564 36.37925 9.006967 31.961346 9.006967 31.961346 M 14.505296 29.460087 L 17.006555 31.961346 M 14.505296 29.460087 L 10.176194 26.833026 M 27.507401 24.198564 C 30.001259 25.30859 32.206511 27.558243 33.42754 30.784718 M 27.507401 24.198564 C 25.487154 25.967205 24.029319 27.684046 23.000695 30.703317 C 22.179276 35.210022 21.787067 37.074866 24.502931 39.457722 C 26.20497 39.864731 25.975565 36.001841 26.005166 34.462605 C 26.034766 32.915968 27.122592 31.643139 28.003213 31.961346 C 29.453647 31.472935 30.223265 36.046242 30.504471 37.962887 C 30.785678 39.879532 32.59132 41.411368 33.516342 37.911086 M 27.507401 24.198564 C 30.548872 23.59915 31.821702 22.910934 34.500565 22.962735 C 39.081272 23.280942 40.960917 24.250365 43.824784 26.670222 L 44.816407 27.210435 M 27.507401 24.198564 C 25.028343 23.095938 16.177735 22.474324 10.176194 26.833026 M 33.501542 30.962323 C 33.479341 30.903121 33.44974 30.84392 33.42754 30.784718 M 33.501542 37.962887 C 33.501542 37.962887 34.004753 35.95744 34.004753 34.462605 C 34.004753 32.960369 33.42754 30.784718 33.42754 30.784718 M 45.001411 27.314037 C 45.497223 27.817249 47.998482 30.503512 47.998482 30.503512 C 47.998482 30.503512 49.848525 32.679163 51.35076 31.680139 C 52.852996 30.681116 52.135179 28.668269 51.498764 28.216858 C 50.862349 27.758047 49.500717 27.210435 47.998482 27.210435 C 46.814454 27.269636 46.62945 27.055031 44.816407 27.210435 M 45.001411 27.314037 C 42.485352 28.749671 39.932292 30.525712 38.504059 32.960369 C 37.201628 36.046242 36.358009 38.332895 38.000847 38.96191 C 39.651086 39.590925 39.177475 37.615079 41.501129 35.461628 C 41.501129 35.461628 42.507553 33.959393 43.003364 34.462605 C 43.506576 34.958416 43.491776 36.009241 43.284571 36.682657 M 45.001411 27.314037 L 44.816407 27.210435 M 43.365973 36.460652 C 42.840561 37.814883 42.004341 39.457722 43.506576 39.457722 C 45.001411 39.457722 45.948634 35.668833 46.000435 33.463581 " stroke="#ffffff" stroke-width="1" stroke-opacity="1" stroke-miterlimit="4"/></g></svg>