<svg width="40" height="40" viewBox="0 0 40 40" fill="none" xmlns="http://www.w3.org/2000/svg">
<mask id="mask0_175_2003" style="mask-type:luminance" maskUnits="userSpaceOnUse" x="3" y="6" width="17" height="26">
<path d="M3.8645 6.96875H19.9999V32H3.8645V6.96875Z" fill="white"/>
</mask>
<g mask="url(#mask0_175_2003)">
<path d="M12.104 17.5157C10.6925 17.5157 9.36963 17.9324 8.26546 18.6459C8.27588 18.5782 8.26546 18.5105 8.28109 18.3282C8.29671 18.1512 8.32275 18.0157 8.354 17.8699C8.39567 17.6564 8.43213 17.5001 8.45817 17.4116C8.6665 16.6355 8.96859 15.9532 8.96859 15.9532C9.07275 15.7137 9.26546 15.3126 9.53109 14.8803C9.96338 14.172 10.4061 13.698 11.0259 13.073C12.3175 11.7553 13.2863 10.5887 15.0311 9.38032C15.2446 9.22928 15.4321 9.04699 15.6509 8.90637C15.6509 8.90637 16.1717 8.55741 16.2967 8.27095C16.3384 8.19282 16.3332 8.1147 16.3332 8.1147C16.3332 8.06262 16.3175 8.01574 16.2811 7.93762C16.2186 7.80741 16.1561 7.71887 16.1248 7.67199C16.0311 7.54178 16.0259 7.55741 15.9321 7.4272C15.8071 7.26053 15.7863 7.20845 15.703 7.14595C15.703 7.14595 15.6196 7.08866 15.5259 7.05741C15.2446 6.96887 14.7915 7.42199 14.453 7.72408C14.1457 8.00012 13.7967 8.22928 13.4686 8.48449C12.8384 8.97928 12.8071 8.96366 12.1509 9.46887C11.8592 9.68762 10.8592 10.4585 9.70817 11.5053C9.54671 11.6512 9.39567 11.7866 9.19775 11.9793C9.01546 12.1512 8.50504 12.6564 7.88004 13.3855C7.70296 13.5887 7.14567 14.2501 6.63004 14.9845C6.0415 15.823 4.96859 17.3543 4.34359 19.6095C3.88525 21.2553 3.86963 22.5626 3.86963 22.9689C3.86963 23.6355 3.92692 24.1772 3.9738 24.5157C4.0988 25.4116 4.24984 26.5418 4.90609 27.7709C5.729 29.3074 6.98421 30.323 7.94775 30.8282C8.5988 31.1668 9.31754 31.3803 9.354 31.3907C9.46859 31.422 9.99463 31.573 10.7082 31.6512C11.3019 31.7241 11.7655 31.7137 11.9582 31.7084C11.9686 31.7084 11.979 31.7084 11.9894 31.7084C12.0259 31.7084 12.0675 31.7084 12.104 31.7084C16.0207 31.7084 19.1978 28.5314 19.1978 24.6147C19.1978 20.6928 16.0207 17.5209 12.104 17.5209V17.5157Z" fill="#2C578F"/>
</g>
<mask id="mask1_175_2003" style="mask-type:luminance" maskUnits="userSpaceOnUse" x="20" y="6" width="16" height="26">
<path d="M20 6.96875H35.7969V32H20V6.96875Z" fill="white"/>
</mask>
<g mask="url(#mask1_175_2003)">
<path d="M29.0365 17.5365C27.6198 17.5365 26.3021 17.948 25.1927 18.6667C25.2031 18.599 25.1927 18.5313 25.2083 18.3438C25.2292 18.1667 25.25 18.0365 25.2812 17.8855C25.3229 17.6771 25.3646 17.5157 25.3854 17.4323C25.5937 16.6511 25.8958 15.974 25.8958 15.974C26 15.7344 26.1927 15.3334 26.4583 14.9011C26.8906 14.1927 27.3385 13.7136 27.9531 13.0886C29.2448 11.7709 30.2135 10.6042 31.9635 9.39587C32.1719 9.25004 32.3594 9.06774 32.5781 8.92191C32.5781 8.92191 33.099 8.57295 33.2292 8.2917C33.2656 8.20837 33.2604 8.13024 33.2604 8.13024C33.2604 8.07816 33.2448 8.03129 33.2083 7.95837C33.1458 7.82816 33.0833 7.73441 33.0521 7.69274C32.9583 7.56253 32.9583 7.57816 32.8594 7.44274C32.7344 7.27608 32.7187 7.2292 32.6302 7.1667C32.6302 7.1667 32.5521 7.1042 32.4531 7.07816C32.1719 6.98962 31.7187 7.44274 31.3802 7.74483C31.0729 8.02087 30.724 8.24483 30.3958 8.50004C29.7656 8.99483 29.7396 8.9792 29.0781 9.48441C28.7917 9.70316 27.7865 10.4792 26.6354 11.5209C26.474 11.6667 26.3229 11.8021 26.125 12C25.9427 12.1719 25.4323 12.6719 24.8073 13.4063C24.6302 13.6094 24.0729 14.2657 23.5573 15.0052C22.9687 15.8438 21.901 17.375 21.2708 19.625C20.8125 21.2709 20.7969 22.5782 20.7969 22.9844C20.7969 23.6511 20.8594 24.1927 20.901 24.5313C21.026 25.4323 21.1771 26.5573 21.8333 27.7865C22.6615 29.323 23.9115 30.3386 24.875 30.8438C25.526 31.1875 26.2448 31.3959 26.2812 31.4063C26.3958 31.4375 26.9219 31.5886 27.6354 31.6719C28.2344 31.7396 28.6979 31.7292 28.8854 31.724C28.8958 31.724 28.9062 31.724 28.9167 31.724C28.9531 31.724 28.9948 31.724 29.0312 31.724C32.9531 31.724 36.125 28.5469 36.125 24.6302C36.125 20.7136 32.9531 17.5365 29.0312 17.5365H29.0365Z" fill="#2C578F"/>
</g>
</svg>
