<svg width="35" height="35" viewBox="0 0 35 35" fill="none" xmlns="http://www.w3.org/2000/svg">
<path d="M23.0728 1.14673C24.1214 1.1814 24.8453 1.38843 25.3462 1.74048C25.8278 2.07901 26.1626 2.59467 26.3569 3.37915L26.4312 3.73169L26.4321 3.73364C26.7076 5.24879 26.6149 6.72078 25.9771 8.12134L25.8423 8.40063C25.2431 9.5715 24.7606 10.8319 24.0562 12.428L23.7837 13.0461L24.4536 13.1262C25.6083 13.2648 26.5358 13.4268 27.4165 13.4963L27.7915 13.5208H27.7925C28.4272 13.549 29.0629 13.5295 29.6733 13.5149C30.1364 13.5038 30.5871 13.4952 31.0317 13.5081L31.4741 13.5286C32.8801 13.6238 33.6277 14.0826 33.9263 14.6545C34.2098 15.198 34.1887 16.0325 33.6187 17.178L33.4966 17.4114L33.4956 17.4133C33.3582 17.6685 33.2358 17.9832 33.0806 18.3264L32.9468 18.6223L33.1626 18.8655C33.8291 19.6137 34.1914 20.3261 34.2378 21.0051C34.28 21.6242 34.0646 22.2973 33.4175 23.0334L33.2817 23.1819C33.0494 23.4205 32.9357 23.7678 32.8892 24.054C32.8469 24.3135 32.844 24.6194 32.9233 24.8899L32.9624 25.0032C33.2385 25.7139 33.2729 26.2724 33.1323 26.7424C33.0084 27.1567 32.7317 27.5588 32.2524 27.9641L32.0337 28.1379L32.0298 28.1409C31.7256 28.3754 31.4943 28.724 31.3364 29.0696C31.1769 29.4189 31.0715 29.8129 31.0542 30.177C31.018 30.908 30.79 31.3889 30.4663 31.7024C30.1788 31.9809 29.7725 32.1686 29.2427 32.2493L29.0083 32.2776H29.0073C26.4622 32.5056 23.9505 32.7377 21.4624 32.6213H21.4634C20.4725 32.5733 19.4811 32.3946 18.4653 32.1799C17.7125 32.0208 16.9353 31.8394 16.1538 31.6868L15.3716 31.5452C14.8092 31.4474 14.412 31.2628 14.1167 30.9973C13.8567 30.7635 13.6454 30.4402 13.481 29.9856L13.4136 29.7825V29.7815L13.2007 29.053C12.2625 25.6464 12.0605 22.1552 12.1479 18.6106L12.1714 17.8499V17.843C12.1772 17.5651 12.297 17.2251 12.4663 16.9827L12.5415 16.885C13.644 15.601 14.763 14.3323 15.8833 13.0608C16.443 12.4255 17.003 11.7891 17.561 11.1506L19.2271 9.22583L19.228 9.22485C21.1712 6.93558 22.6475 4.35776 23.0728 1.14673Z" fill="#FFDD55" stroke="#2C578F"/>
<path d="M8.32837 17.2913C8.98098 22.3825 9.59599 27.1566 10.2405 32.1829C9.2135 32.5187 8.08405 32.9037 6.92114 33.2424L6.35474 33.4026L6.35278 33.4036C5.75752 33.5692 5.29999 33.6654 4.93579 33.6917C4.57591 33.7175 4.33976 33.6721 4.16528 33.5852C3.85676 33.4315 3.58723 33.0703 3.27856 32.2073L3.1438 31.8059C2.59569 30.0742 2.08105 28.3402 1.73364 26.5872L1.59595 25.8342C1.2823 23.9916 1.12528 22.1093 1.06079 20.2219L1.03833 19.4133C1.02087 18.4815 1.18015 18.03 1.42993 17.7795C1.68767 17.5212 2.16209 17.3528 3.10669 17.3127L3.10571 17.3118C4.88934 17.2455 6.66905 17.2842 8.32837 17.2913Z" fill="#FFDD55" stroke="#2C578F"/>
</svg>
