<svg width="35" height="35" viewBox="0 0 35 35" fill="none" xmlns="http://www.w3.org/2000/svg">
<mask id="mask0_203_1813" style="mask-type:luminance" maskUnits="userSpaceOnUse" x="3" y="6" width="29" height="21">
<path d="M3.44531 6.5625H31.3861V26.8835H3.44531V6.5625Z" fill="white"/>
</mask>
<g mask="url(#mask0_203_1813)">
<path d="M8.10295 6.5625C5.54175 6.5625 3.44995 8.62695 3.44995 11.1517V22.2988C3.44995 24.8236 5.54175 26.8835 8.10295 26.8835H26.724C29.2852 26.8835 31.3816 24.8236 31.3816 22.2988V11.1517C31.3816 8.62695 29.2852 6.5625 26.724 6.5625H8.10295ZM8.10295 8.53125H26.724C28.2188 8.53125 29.3855 9.68424 29.3855 11.1517V22.2988C29.3855 23.7663 28.2188 24.9193 26.724 24.9193H8.10295C6.61271 24.9193 5.44605 23.7663 5.44605 22.2988V11.1517C5.44605 9.68424 6.61271 8.53125 8.10295 8.53125ZM15.1212 11.4798C14.8386 11.4707 14.5971 11.5618 14.392 11.7578C14.1915 11.9492 14.0912 12.1862 14.0912 12.4642V20.9863C14.0867 21.237 14.1733 21.4603 14.3464 21.6471C14.5151 21.834 14.7292 21.9434 14.9845 21.9707C15.1895 21.9889 15.3855 21.9525 15.5678 21.8568L23.5476 17.5957C23.894 17.4089 24.0717 17.1217 24.0717 16.7298C24.0717 16.3379 23.894 16.0508 23.5476 15.8639L15.5678 11.6029C15.4265 11.5254 15.2761 11.4844 15.1212 11.4798ZM16.0873 14.123L20.9682 16.7253L16.0873 19.3366V14.123Z" fill="white"/>
</g>
</svg>
