<svg width="844" height="292" viewBox="0 0 844 292" fill="none" xmlns="http://www.w3.org/2000/svg">
<path d="M55.5 21.5L106.5 12L18.5 68.5M34.5 33L12 65M15 86L18.5 129M23 148.5L46 189M62.5 209.5L93 239.5M106.5 252L153 276.5M173 274L216.5 252M232.5 239.5L262 209.5M277 189L300 148.5M307.5 129L312 82M307.5 62.5L287.5 33M272.5 17L223 12M202 17L170.5 45M155.5 45L124.5 21.5M116 25.5L159 268M65 201.5L214 243M102 233.5L157.5 62.5M112 239.5L258 201.5M167 268L302.5 79.5M223 235L209.5 21.5M173 50.5L272.5 25.5M23 77L262 194.5M62.5 189L272.5 30M31 136L296 139.5M26 133L153 53.5M52.5 25.5L153 50.5M38.5 33L23 129M216.5 21.5L302.5 129" stroke="#2F9FDF" stroke-width="4"/>
<circle cx="42.5" cy="22.5" r="12.5" fill="#FFBB17"/>
<circle cx="12.5" cy="73.5" r="12.5" fill="#FFBB17"/>
<circle cx="20.5" cy="139.5" r="12.5" fill="#FFBB17"/>
<circle cx="54.5" cy="200.5" r="12.5" fill="#FFBB17"/>
<circle cx="100.5" cy="243.5" r="12.5" fill="#FFBB17"/>
<circle cx="162.5" cy="279.5" r="12.5" fill="#FFBB17"/>
<circle cx="223.5" cy="243.5" r="12.5" fill="#FFBB17"/>
<circle cx="270.5" cy="200.5" r="12.5" fill="#FFBB17"/>
<circle cx="304.5" cy="139.5" r="12.5" fill="#FFBB17"/>
<circle cx="310.5" cy="73.5" r="12.5" fill="#FFBB17"/>
<circle cx="282.5" cy="22.5" r="12.5" fill="#FFBB17"/>
<circle cx="210.5" cy="12.5" r="12.5" fill="#FFBB17"/>
<circle cx="162.5" cy="53.5" r="12.5" fill="#FFBB17"/>
<circle cx="114.5" cy="13.5" r="12.5" fill="#FFBB17"/>
<mask id="path-16-outside-1_525_1702" maskUnits="userSpaceOnUse" x="376" y="35" width="468" height="221" fill="black">
<rect fill="white" x="376" y="35" width="468" height="221"/>
<path d="M378.859 39.0909H409.577L430.706 90.5824H431.771L452.901 39.0909H483.618V130H459.47V77.4432H458.76L438.518 129.29H423.959L403.717 77.0881H403.007V130H378.859V39.0909ZM495.314 130V39.0909H560.833V58.9773H519.995V74.6023H557.459V94.4886H519.995V110.114H560.655V130H495.314ZM573.073 130V39.0909H612.313C619.06 39.0909 624.964 40.319 630.025 42.7752C635.085 45.2314 639.021 48.7678 641.832 53.3842C644.643 58.0007 646.049 63.5346 646.049 69.9858C646.049 76.4962 644.599 81.9857 641.699 86.4542C638.828 90.9227 634.789 94.2963 629.581 96.5749C624.402 98.8536 618.35 99.9929 611.426 99.9929H587.988V80.8168H606.454C609.354 80.8168 611.825 80.4616 613.867 79.7514C615.938 79.0116 617.522 77.8427 618.617 76.2447C619.741 74.6467 620.303 72.5604 620.303 69.9858C620.303 67.3816 619.741 65.2657 618.617 63.6381C617.522 61.9809 615.938 60.7676 613.867 59.9982C611.825 59.1992 609.354 58.7997 606.454 58.7997H597.754V130H573.073ZM626.34 88.2741L649.068 130H622.256L600.062 88.2741H626.34ZM741.441 73.1818H716.406C716.228 71.1103 715.755 69.2312 714.986 67.5444C714.246 65.8576 713.21 64.4075 711.878 63.1942C710.576 61.9513 708.993 61.0044 707.129 60.3533C705.264 59.6727 703.148 59.3324 700.781 59.3324C696.638 59.3324 693.131 60.3385 690.261 62.3509C687.42 64.3632 685.26 67.2485 683.78 71.0067C682.33 74.765 681.605 79.2779 681.605 84.5455C681.605 90.1089 682.345 94.7698 683.824 98.5281C685.334 102.257 687.509 105.068 690.35 106.962C693.19 108.826 696.608 109.759 700.603 109.759C702.882 109.759 704.924 109.477 706.729 108.915C708.534 108.323 710.103 107.48 711.434 106.385C712.766 105.29 713.846 103.973 714.675 102.434C715.533 100.866 716.11 99.1051 716.406 97.152L741.441 97.3295C741.146 101.177 740.065 105.098 738.201 109.093C736.337 113.058 733.688 116.728 730.255 120.101C726.852 123.445 722.635 126.138 717.604 128.18C712.574 130.222 706.729 131.243 700.071 131.243C691.726 131.243 684.239 129.453 677.61 125.872C671.011 122.291 665.787 117.024 661.94 110.069C658.123 103.115 656.214 94.607 656.214 84.5455C656.214 74.4247 658.167 65.902 662.074 58.9773C665.98 52.023 671.247 46.7702 677.876 43.2191C684.505 39.6384 691.903 37.848 700.071 37.848C705.812 37.848 711.094 38.6322 715.918 40.2006C720.741 41.7691 724.973 44.0625 728.613 47.081C732.253 50.0698 735.183 53.7541 737.402 58.1339C739.622 62.5136 740.968 67.5296 741.441 73.1818ZM748.91 39.0909H776.431L794.187 76.0227H794.897L812.653 39.0909H840.174L806.794 101.413V130H782.291V101.413L748.91 39.0909ZM463.732 195.182H438.696C438.518 193.11 438.045 191.231 437.276 189.544C436.536 187.858 435.5 186.408 434.168 185.194C432.866 183.951 431.283 183.004 429.419 182.353C427.554 181.673 425.438 181.332 423.071 181.332C418.928 181.332 415.421 182.339 412.551 184.351C409.71 186.363 407.55 189.248 406.07 193.007C404.62 196.765 403.895 201.278 403.895 206.545C403.895 212.109 404.635 216.77 406.114 220.528C407.624 224.257 409.799 227.068 412.64 228.962C415.48 230.826 418.898 231.759 422.893 231.759C425.172 231.759 427.214 231.477 429.019 230.915C430.824 230.323 432.393 229.48 433.724 228.385C435.056 227.29 436.136 225.973 436.965 224.434C437.823 222.866 438.4 221.105 438.696 219.152L463.732 219.33C463.436 223.177 462.355 227.098 460.491 231.093C458.627 235.058 455.978 238.728 452.545 242.101C449.142 245.445 444.925 248.138 439.895 250.18C434.864 252.222 429.019 253.243 422.361 253.243C414.016 253.243 406.529 251.453 399.9 247.872C393.301 244.291 388.078 239.024 384.23 232.069C380.413 225.115 378.504 216.607 378.504 206.545C378.504 196.425 380.457 187.902 384.364 180.977C388.27 174.023 393.537 168.77 400.166 165.219C406.795 161.638 414.193 159.848 422.361 159.848C428.102 159.848 433.384 160.632 438.208 162.201C443.031 163.769 447.263 166.062 450.903 169.081C454.543 172.07 457.473 175.754 459.692 180.134C461.912 184.514 463.258 189.53 463.732 195.182ZM479.929 252V161.091H504.609V196.602H537.28V161.091H561.96V252H537.28V216.489H504.609V252H479.929ZM602.294 252H575.66L605.667 161.091H639.403L669.41 252H642.777L622.89 186.126H622.18L602.294 252ZM597.322 216.134H647.393V234.599H597.322V216.134ZM707.846 161.091V252H683.166V161.091H707.846ZM803.201 161.091V252H782.604L749.756 204.237H749.223V252H724.543V161.091H745.495L777.81 208.676H778.52V161.091H803.201Z"/>
</mask>
<path d="M378.859 39.0909V37.0909H376.859V39.0909H378.859ZM409.577 39.0909L411.427 38.3317L410.918 37.0909H409.577V39.0909ZM430.706 90.5824L428.856 91.3416L429.365 92.5824H430.706V90.5824ZM431.771 90.5824V92.5824H433.112L433.622 91.3416L431.771 90.5824ZM452.901 39.0909V37.0909H451.559L451.05 38.3317L452.901 39.0909ZM483.618 39.0909H485.618V37.0909H483.618V39.0909ZM483.618 130V132H485.618V130H483.618ZM459.47 130H457.47V132H459.47V130ZM459.47 77.4432H461.47V75.4432H459.47V77.4432ZM458.76 77.4432V75.4432H457.394L456.897 76.7158L458.76 77.4432ZM438.518 129.29V131.29H439.885L440.382 130.017L438.518 129.29ZM423.959 129.29L422.094 130.013L422.589 131.29H423.959V129.29ZM403.717 77.0881L405.582 76.365L405.087 75.0881H403.717V77.0881ZM403.007 77.0881V75.0881H401.007V77.0881H403.007ZM403.007 130V132H405.007V130H403.007ZM378.859 130H376.859V132H378.859V130ZM378.859 39.0909V41.0909H409.577V39.0909V37.0909H378.859V39.0909ZM409.577 39.0909L407.726 39.8502L428.856 91.3416L430.706 90.5824L432.556 89.8231L411.427 38.3317L409.577 39.0909ZM430.706 90.5824V92.5824H431.771V90.5824V88.5824H430.706V90.5824ZM431.771 90.5824L433.622 91.3416L454.751 39.8502L452.901 39.0909L451.05 38.3317L429.921 89.8231L431.771 90.5824ZM452.901 39.0909V41.0909H483.618V39.0909V37.0909H452.901V39.0909ZM483.618 39.0909H481.618V130H483.618H485.618V39.0909H483.618ZM483.618 130V128H459.47V130V132H483.618V130ZM459.47 130H461.47V77.4432H459.47H457.47V130H459.47ZM459.47 77.4432V75.4432H458.76V77.4432V79.4432H459.47V77.4432ZM458.76 77.4432L456.897 76.7158L436.655 128.562L438.518 129.29L440.382 130.017L460.623 78.1705L458.76 77.4432ZM438.518 129.29V127.29H423.959V129.29V131.29H438.518V129.29ZM423.959 129.29L425.824 128.567L405.582 76.365L403.717 77.0881L401.853 77.8111L422.094 130.013L423.959 129.29ZM403.717 77.0881V75.0881H403.007V77.0881V79.0881H403.717V77.0881ZM403.007 77.0881H401.007V130H403.007H405.007V77.0881H403.007ZM403.007 130V128H378.859V130V132H403.007V130ZM378.859 130H380.859V39.0909H378.859H376.859V130H378.859ZM495.314 130H493.314V132H495.314V130ZM495.314 39.0909V37.0909H493.314V39.0909H495.314ZM560.833 39.0909H562.833V37.0909H560.833V39.0909ZM560.833 58.9773V60.9773H562.833V58.9773H560.833ZM519.995 58.9773V56.9773H517.995V58.9773H519.995ZM519.995 74.6023H517.995V76.6023H519.995V74.6023ZM557.459 74.6023H559.459V72.6023H557.459V74.6023ZM557.459 94.4886V96.4886H559.459V94.4886H557.459ZM519.995 94.4886V92.4886H517.995V94.4886H519.995ZM519.995 110.114H517.995V112.114H519.995V110.114ZM560.655 110.114H562.655V108.114H560.655V110.114ZM560.655 130V132H562.655V130H560.655ZM495.314 130H497.314V39.0909H495.314H493.314V130H495.314ZM495.314 39.0909V41.0909H560.833V39.0909V37.0909H495.314V39.0909ZM560.833 39.0909H558.833V58.9773H560.833H562.833V39.0909H560.833ZM560.833 58.9773V56.9773H519.995V58.9773V60.9773H560.833V58.9773ZM519.995 58.9773H517.995V74.6023H519.995H521.995V58.9773H519.995ZM519.995 74.6023V76.6023H557.459V74.6023V72.6023H519.995V74.6023ZM557.459 74.6023H555.459V94.4886H557.459H559.459V74.6023H557.459ZM557.459 94.4886V92.4886H519.995V94.4886V96.4886H557.459V94.4886ZM519.995 94.4886H517.995V110.114H519.995H521.995V94.4886H519.995ZM519.995 110.114V112.114H560.655V110.114V108.114H519.995V110.114ZM560.655 110.114H558.655V130H560.655H562.655V110.114H560.655ZM560.655 130V128H495.314V130V132H560.655V130ZM573.073 130H571.073V132H573.073V130ZM573.073 39.0909V37.0909H571.073V39.0909H573.073ZM630.025 42.7752L629.151 44.5745L630.025 42.7752ZM641.832 53.3842L643.54 52.344L643.54 52.344L641.832 53.3842ZM641.699 86.4542L640.021 85.3654L640.016 85.3732L641.699 86.4542ZM629.581 96.5749L628.779 94.7426L628.775 94.7443L629.581 96.5749ZM587.988 99.9929H585.988V101.993H587.988V99.9929ZM587.988 80.8168V78.8168H585.988V80.8168H587.988ZM613.867 79.7514L614.524 81.6404L614.532 81.6377L614.54 81.6349L613.867 79.7514ZM618.617 76.2447L616.981 75.0937L616.974 75.1039L616.967 75.1142L618.617 76.2447ZM618.617 63.6381L616.948 64.7407L616.959 64.758L616.971 64.775L618.617 63.6381ZM613.867 59.9982L613.138 61.8607L613.154 61.867L613.171 61.8731L613.867 59.9982ZM597.754 58.7997V56.7997H595.754V58.7997H597.754ZM597.754 130V132H599.754V130H597.754ZM626.34 88.2741L628.097 87.3175L627.528 86.2741H626.34V88.2741ZM649.068 130V132H652.434L650.824 129.043L649.068 130ZM622.256 130L620.491 130.939L621.055 132H622.256V130ZM600.062 88.2741V86.2741H596.733L598.296 89.2134L600.062 88.2741ZM573.073 130H575.073V39.0909H573.073H571.073V130H573.073ZM573.073 39.0909V41.0909H612.313V39.0909V37.0909H573.073V39.0909ZM612.313 39.0909V41.0909C618.818 41.0909 624.412 42.2741 629.151 44.5745L630.025 42.7752L630.898 40.976C625.516 38.3639 619.303 37.0909 612.313 37.0909V39.0909ZM630.025 42.7752L629.151 44.5745C633.881 46.8702 637.521 50.1497 640.124 54.4245L641.832 53.3842L643.54 52.344C640.521 47.3859 636.289 43.5926 630.898 40.976L630.025 42.7752ZM641.832 53.3842L640.124 54.4245C642.71 58.6716 644.049 63.83 644.049 69.9858H646.049H648.049C648.049 63.2392 646.577 57.3298 643.54 52.344L641.832 53.3842ZM646.049 69.9858H644.049C644.049 76.1961 642.668 81.2866 640.021 85.3654L641.699 86.4542L643.377 87.543C646.53 82.6847 648.049 76.7963 648.049 69.9858H646.049ZM641.699 86.4542L640.016 85.3732C637.374 89.4862 633.653 92.6104 628.779 94.7426L629.581 96.5749L630.382 98.4072C635.925 95.9822 640.283 92.3592 643.382 87.5351L641.699 86.4542ZM629.581 96.5749L628.775 94.7443C623.9 96.8892 618.133 97.9929 611.426 97.9929V99.9929V101.993C618.567 101.993 624.903 100.818 630.386 98.4056L629.581 96.5749ZM611.426 99.9929V97.9929H587.988V99.9929V101.993H611.426V99.9929ZM587.988 99.9929H589.988V80.8168H587.988H585.988V99.9929H587.988ZM587.988 80.8168V82.8168H606.454V80.8168V78.8168H587.988V80.8168ZM606.454 80.8168V82.8168C609.506 82.8168 612.212 82.4444 614.524 81.6404L613.867 79.7514L613.21 77.8624C611.438 78.4789 609.202 78.8168 606.454 78.8168V80.8168ZM613.867 79.7514L614.54 81.6349C616.952 80.7733 618.902 79.3669 620.266 77.3751L618.617 76.2447L616.967 75.1142C616.142 76.3185 614.925 77.2499 613.194 77.8679L613.867 79.7514ZM618.617 76.2447L620.252 77.3957C621.679 75.3683 622.303 72.8429 622.303 69.9858H620.303H618.303C618.303 72.2779 617.803 73.925 616.981 75.0937L618.617 76.2447ZM620.303 69.9858H622.303C622.303 67.1024 621.68 64.5542 620.262 62.5013L618.617 63.6381L616.971 64.775C617.802 65.9773 618.303 67.6608 618.303 69.9858H620.303ZM618.617 63.6381L620.285 62.5356C618.93 60.4847 616.986 59.0231 614.563 58.1234L613.867 59.9982L613.171 61.8731C614.891 62.5122 616.113 63.4772 616.948 64.7407L618.617 63.6381ZM613.867 59.9982L614.596 58.1357C612.26 57.2217 609.527 56.7997 606.454 56.7997V58.7997V60.7997C609.181 60.7997 611.39 61.1767 613.138 61.8607L613.867 59.9982ZM606.454 58.7997V56.7997H597.754V58.7997V60.7997H606.454V58.7997ZM597.754 58.7997H595.754V130H597.754H599.754V58.7997H597.754ZM597.754 130V128H573.073V130V132H597.754V130ZM626.34 88.2741L624.584 89.2308L647.311 130.957L649.068 130L650.824 129.043L628.097 87.3175L626.34 88.2741ZM649.068 130V128H622.256V130V132H649.068V130ZM622.256 130L624.022 129.061L601.828 87.3349L600.062 88.2741L598.296 89.2134L620.491 130.939L622.256 130ZM600.062 88.2741V90.2741H626.34V88.2741V86.2741H600.062V88.2741ZM741.441 73.1818V75.1818H743.616L743.435 73.0149L741.441 73.1818ZM716.406 73.1818L714.413 73.3526L714.57 75.1818H716.406V73.1818ZM714.986 67.5444L713.154 68.3477L713.16 68.3611L713.166 68.3744L714.986 67.5444ZM711.878 63.1942L710.497 64.641L710.514 64.657L710.531 64.6726L711.878 63.1942ZM707.129 60.3533L706.443 62.2321L706.456 62.2369L706.469 62.2415L707.129 60.3533ZM690.261 62.3509L689.113 60.7132L689.105 60.7188L690.261 62.3509ZM683.78 71.0067L681.919 70.2741L681.914 70.2868L683.78 71.0067ZM683.824 98.5281L681.963 99.2607L681.967 99.2696L681.97 99.2784L683.824 98.5281ZM690.35 106.962L689.24 108.626L689.246 108.63L689.252 108.634L690.35 106.962ZM706.729 108.915L707.324 110.825L707.338 110.82L707.352 110.816L706.729 108.915ZM711.434 106.385L712.705 107.93L712.705 107.93L711.434 106.385ZM714.675 102.434L712.92 101.474L712.914 101.486L714.675 102.434ZM716.406 97.152L716.42 95.152L714.688 95.1398L714.429 96.8524L716.406 97.152ZM741.441 97.3295L743.436 97.4829L743.6 95.3448L741.456 95.3296L741.441 97.3295ZM738.201 109.093L740.011 109.944L740.013 109.938L738.201 109.093ZM730.255 120.101L731.657 121.528L731.657 121.528L730.255 120.101ZM717.604 128.18L716.852 126.327L717.604 128.18ZM677.61 125.872L676.656 127.63L676.659 127.631L677.61 125.872ZM661.94 110.069L660.187 111.032L660.19 111.037L661.94 110.069ZM662.074 58.9773L663.816 59.9599L663.817 59.9567L662.074 58.9773ZM677.876 43.2191L678.821 44.9821L678.827 44.9788L677.876 43.2191ZM715.918 40.2006L716.536 38.2987L716.536 38.2987L715.918 40.2006ZM728.613 47.081L727.336 48.6205L727.344 48.6266L728.613 47.081ZM737.402 58.1339L735.618 59.0379L735.618 59.0379L737.402 58.1339ZM741.441 73.1818V71.1818H716.406V73.1818V75.1818H741.441V73.1818ZM716.406 73.1818L718.399 73.011C718.204 70.7389 717.68 68.6331 716.805 66.7144L714.986 67.5444L713.166 68.3744C713.83 69.8293 714.253 71.4817 714.413 73.3526L716.406 73.1818ZM714.986 67.5444L716.817 66.7411C715.967 64.8037 714.769 63.1221 713.225 61.7158L711.878 63.1942L710.531 64.6726C711.651 65.693 712.524 66.9115 713.154 68.3477L714.986 67.5444ZM711.878 63.1942L713.259 61.7475C711.732 60.2893 709.895 59.201 707.788 58.4652L707.129 60.3533L706.469 62.2415C708.091 62.8078 709.421 63.6134 710.497 64.641L711.878 63.1942ZM707.129 60.3533L707.815 58.4746C705.693 57.6999 703.338 57.3324 700.781 57.3324V59.3324V61.3324C702.958 61.3324 704.836 61.6455 706.443 62.2321L707.129 60.3533ZM700.781 59.3324V57.3324C696.304 57.3324 692.377 58.4246 689.113 60.7132L690.261 62.3509L691.409 63.9885C693.885 62.2525 696.972 61.3324 700.781 61.3324V59.3324ZM690.261 62.3509L689.105 60.7188C685.898 62.9902 683.518 66.2132 681.919 70.2741L683.78 71.0067L685.641 71.7394C687.001 68.2838 688.942 65.7361 691.417 63.9829L690.261 62.3509ZM683.78 71.0067L681.914 70.2868C680.353 74.3334 679.605 79.1036 679.605 84.5455H681.605H683.605C683.605 79.4523 684.307 75.1967 685.646 71.7267L683.78 71.0067ZM681.605 84.5455H679.605C679.605 90.2715 680.364 95.1991 681.963 99.2607L683.824 98.5281L685.685 97.7954C684.325 94.3405 683.605 89.9463 683.605 84.5455H681.605ZM683.824 98.5281L681.97 99.2784C683.603 103.312 686.009 106.472 689.24 108.626L690.35 106.962L691.459 105.298C689.008 103.664 687.064 101.202 685.678 97.7777L683.824 98.5281ZM690.35 106.962L689.252 108.634C692.473 110.748 696.288 111.759 700.603 111.759V109.759V107.759C696.928 107.759 693.908 106.905 691.447 105.29L690.35 106.962ZM700.603 109.759V111.759C703.044 111.759 705.291 111.458 707.324 110.825L706.729 108.915L706.134 107.006C704.557 107.497 702.72 107.759 700.603 107.759V109.759ZM706.729 108.915L707.352 110.816C709.369 110.154 711.163 109.198 712.705 107.93L711.434 106.385L710.164 104.84C709.043 105.762 707.699 106.492 706.106 107.015L706.729 108.915ZM711.434 106.385L712.705 107.93C714.24 106.667 715.486 105.147 716.436 103.383L714.675 102.434L712.914 101.486C712.207 102.799 711.292 103.913 710.164 104.84L711.434 106.385ZM714.675 102.434L716.429 103.394C717.411 101.6 718.056 99.612 718.383 97.4516L716.406 97.152L714.429 96.8524C714.164 98.5982 713.655 100.132 712.92 101.474L714.675 102.434ZM716.406 97.152L716.392 99.1519L741.427 99.3295L741.441 97.3295L741.456 95.3296L716.42 95.152L716.406 97.152ZM741.441 97.3295L739.447 97.1762C739.172 100.752 738.166 104.439 736.389 108.247L738.201 109.093L740.013 109.938C741.965 105.756 743.119 101.601 743.436 97.4829L741.441 97.3295ZM738.201 109.093L736.391 108.242C734.637 111.973 732.134 115.451 728.854 118.675L730.255 120.101L731.657 121.528C735.242 118.004 738.036 114.144 740.011 109.944L738.201 109.093ZM730.255 120.101L728.854 118.675C725.661 121.812 721.674 124.37 716.852 126.327L717.604 128.18L718.357 130.033C723.597 127.906 728.043 125.079 731.657 121.528L730.255 120.101ZM717.604 128.18L716.852 126.327C712.108 128.253 706.528 129.243 700.071 129.243V131.243V133.243C706.93 133.243 713.04 132.191 718.357 130.033L717.604 128.18ZM700.071 131.243V129.243C692.021 129.243 684.867 127.519 678.56 124.112L677.61 125.872L676.659 127.631C683.611 131.386 691.43 133.243 700.071 133.243V131.243ZM677.61 125.872L678.564 124.114C672.32 120.726 667.364 115.742 663.69 109.101L661.94 110.069L660.19 111.037C664.211 118.305 669.702 123.856 676.656 127.63L677.61 125.872ZM661.94 110.069L663.694 109.107C660.076 102.516 658.214 94.3589 658.214 84.5455H656.214H654.214C654.214 94.8551 656.17 103.714 660.187 111.032L661.94 110.069ZM656.214 84.5455H658.214C658.214 74.6769 660.119 66.5136 663.816 59.9599L662.074 58.9773L660.332 57.9946C656.216 65.2904 654.214 74.1725 654.214 84.5455H656.214ZM662.074 58.9773L663.817 59.9567C667.549 53.3133 672.548 48.3423 678.821 44.9821L677.876 43.2191L676.932 41.4561C669.947 45.1981 664.411 50.7327 660.33 57.9978L662.074 58.9773ZM677.876 43.2191L678.827 44.9788C685.139 41.5688 692.206 39.848 700.071 39.848V37.848V35.848C691.6 35.848 683.871 37.7079 676.926 41.4594L677.876 43.2191ZM700.071 37.848V39.848C705.629 39.848 710.7 40.6071 715.299 42.1026L715.918 40.2006L716.536 38.2987C711.488 36.6574 705.994 35.848 700.071 35.848V37.848ZM715.918 40.2006L715.299 42.1026C719.9 43.5986 723.905 45.7748 727.336 48.6205L728.613 47.081L729.89 45.5414C726.041 42.3502 721.582 39.9395 716.536 38.2987L715.918 40.2006ZM728.613 47.081L727.344 48.6266C730.76 51.4321 733.518 54.8947 735.618 59.0379L737.402 58.1339L739.186 57.2298C736.847 52.6136 733.745 48.7075 729.882 45.5353L728.613 47.081ZM737.402 58.1339L735.618 59.0379C737.704 63.1549 738.993 67.914 739.448 73.3488L741.441 73.1818L743.435 73.0149C742.943 67.1452 741.539 61.8723 739.186 57.2298L737.402 58.1339ZM748.91 39.0909V37.0909H745.57L747.147 40.0352L748.91 39.0909ZM776.431 39.0909L778.234 38.2243L777.689 37.0909H776.431V39.0909ZM794.187 76.0227L792.384 76.8893L792.929 78.0227H794.187V76.0227ZM794.897 76.0227V78.0227H796.155L796.7 76.8893L794.897 76.0227ZM812.653 39.0909V37.0909H811.395L810.85 38.2243L812.653 39.0909ZM840.174 39.0909L841.937 40.0352L843.514 37.0909H840.174V39.0909ZM806.794 101.413L805.03 100.469L804.794 100.911V101.413H806.794ZM806.794 130V132H808.794V130H806.794ZM782.291 130H780.291V132H782.291V130ZM782.291 101.413H784.291V100.911L784.054 100.469L782.291 101.413ZM748.91 39.0909V41.0909H776.431V39.0909V37.0909H748.91V39.0909ZM776.431 39.0909L774.629 39.9575L792.384 76.8893L794.187 76.0227L795.989 75.1561L778.234 38.2243L776.431 39.0909ZM794.187 76.0227V78.0227H794.897V76.0227V74.0227H794.187V76.0227ZM794.897 76.0227L796.7 76.8893L814.455 39.9575L812.653 39.0909L810.85 38.2243L793.095 75.1561L794.897 76.0227ZM812.653 39.0909V41.0909H840.174V39.0909V37.0909H812.653V39.0909ZM840.174 39.0909L838.411 38.1466L805.03 100.469L806.794 101.413L808.557 102.358L841.937 40.0352L840.174 39.0909ZM806.794 101.413H804.794V130H806.794H808.794V101.413H806.794ZM806.794 130V128H782.291V130V132H806.794V130ZM782.291 130H784.291V101.413H782.291H780.291V130H782.291ZM782.291 101.413L784.054 100.469L750.673 38.1466L748.91 39.0909L747.147 40.0352L780.528 102.358L782.291 101.413ZM463.732 195.182V197.182H465.906L465.725 195.015L463.732 195.182ZM438.696 195.182L436.703 195.353L436.86 197.182H438.696V195.182ZM437.276 189.544L435.444 190.348L435.45 190.361L435.456 190.374L437.276 189.544ZM434.168 185.194L432.787 186.641L432.804 186.657L432.821 186.673L434.168 185.194ZM429.419 182.353L428.733 184.232L428.746 184.237L428.759 184.242L429.419 182.353ZM412.551 184.351L411.403 182.713L411.395 182.719L412.551 184.351ZM406.07 193.007L404.209 192.274L404.204 192.287L406.07 193.007ZM406.114 220.528L404.253 221.261L404.257 221.27L404.26 221.278L406.114 220.528ZM412.64 228.962L411.53 230.626L411.536 230.63L411.542 230.634L412.64 228.962ZM429.019 230.915L429.614 232.825L429.628 232.82L429.642 232.816L429.019 230.915ZM433.724 228.385L434.995 229.93L434.995 229.93L433.724 228.385ZM436.965 224.434L435.21 223.474L435.204 223.486L436.965 224.434ZM438.696 219.152L438.71 217.152L436.978 217.14L436.719 218.852L438.696 219.152ZM463.732 219.33L465.726 219.483L465.89 217.345L463.746 217.33L463.732 219.33ZM460.491 231.093L462.301 231.944L462.303 231.938L460.491 231.093ZM452.545 242.101L453.947 243.528L453.947 243.528L452.545 242.101ZM439.895 250.18L439.142 248.327L439.895 250.18ZM399.9 247.872L398.946 249.63L398.949 249.631L399.9 247.872ZM384.23 232.069L382.477 233.032L382.48 233.037L384.23 232.069ZM384.364 180.977L386.106 181.96L386.107 181.957L384.364 180.977ZM400.166 165.219L401.111 166.982L401.117 166.979L400.166 165.219ZM438.208 162.201L438.826 160.299L438.826 160.299L438.208 162.201ZM450.903 169.081L449.626 170.62L449.634 170.627L450.903 169.081ZM459.692 180.134L457.908 181.038L457.908 181.038L459.692 180.134ZM463.732 195.182V193.182H438.696V195.182V197.182H463.732V195.182ZM438.696 195.182L440.689 195.011C440.494 192.739 439.97 190.633 439.095 188.714L437.276 189.544L435.456 190.374C436.12 191.829 436.543 193.482 436.703 195.353L438.696 195.182ZM437.276 189.544L439.107 188.741C438.257 186.804 437.059 185.122 435.515 183.716L434.168 185.194L432.821 186.673C433.941 187.693 434.814 188.911 435.444 190.348L437.276 189.544ZM434.168 185.194L435.549 183.748C434.022 182.289 432.185 181.201 430.078 180.465L429.419 182.353L428.759 184.242C430.381 184.808 431.711 185.613 432.787 186.641L434.168 185.194ZM429.419 182.353L430.105 180.475C427.983 179.7 425.628 179.332 423.071 179.332V181.332V183.332C425.248 183.332 427.126 183.645 428.733 184.232L429.419 182.353ZM423.071 181.332V179.332C418.594 179.332 414.667 180.425 411.403 182.713L412.551 184.351L413.699 185.989C416.175 184.252 419.262 183.332 423.071 183.332V181.332ZM412.551 184.351L411.395 182.719C408.188 184.99 405.808 188.213 404.209 192.274L406.07 193.007L407.931 193.739C409.291 190.284 411.232 187.736 413.707 185.983L412.551 184.351ZM406.07 193.007L404.204 192.287C402.643 196.333 401.895 201.104 401.895 206.545H403.895H405.895C405.895 201.452 406.597 197.197 407.936 193.727L406.07 193.007ZM403.895 206.545H401.895C401.895 212.271 402.654 217.199 404.253 221.261L406.114 220.528L407.975 219.795C406.615 216.34 405.895 211.946 405.895 206.545H403.895ZM406.114 220.528L404.26 221.278C405.893 225.312 408.299 228.472 411.53 230.626L412.64 228.962L413.749 227.298C411.299 225.664 409.354 223.202 407.968 219.778L406.114 220.528ZM412.64 228.962L411.542 230.634C414.763 232.748 418.578 233.759 422.893 233.759V231.759V229.759C419.219 229.759 416.198 228.905 413.737 227.29L412.64 228.962ZM422.893 231.759V233.759C425.334 233.759 427.581 233.458 429.614 232.825L429.019 230.915L428.424 229.006C426.847 229.497 425.01 229.759 422.893 229.759V231.759ZM429.019 230.915L429.642 232.816C431.659 232.154 433.453 231.198 434.995 229.93L433.724 228.385L432.454 226.84C431.333 227.762 429.989 228.492 428.396 229.015L429.019 230.915ZM433.724 228.385L434.995 229.93C436.53 228.667 437.776 227.147 438.726 225.383L436.965 224.434L435.204 223.486C434.497 224.799 433.582 225.913 432.454 226.84L433.724 228.385ZM436.965 224.434L438.719 225.394C439.701 223.6 440.346 221.612 440.673 219.452L438.696 219.152L436.719 218.852C436.454 220.598 435.945 222.132 435.21 223.474L436.965 224.434ZM438.696 219.152L438.682 221.152L463.717 221.329L463.732 219.33L463.746 217.33L438.71 217.152L438.696 219.152ZM463.732 219.33L461.737 219.176C461.462 222.752 460.456 226.439 458.679 230.247L460.491 231.093L462.303 231.938C464.255 227.756 465.409 223.601 465.726 219.483L463.732 219.33ZM460.491 231.093L458.681 230.242C456.927 233.973 454.424 237.451 451.144 240.675L452.545 242.101L453.947 243.528C457.533 240.004 460.326 236.144 462.301 231.944L460.491 231.093ZM452.545 242.101L451.144 240.675C447.951 243.812 443.964 246.37 439.142 248.327L439.895 250.18L440.647 252.033C445.887 249.906 450.334 247.079 453.947 243.528L452.545 242.101ZM439.895 250.18L439.142 248.327C434.398 250.253 428.818 251.243 422.361 251.243V253.243V255.243C429.22 255.243 435.33 254.191 440.647 252.033L439.895 250.18ZM422.361 253.243V251.243C414.311 251.243 407.157 249.519 400.85 246.112L399.9 247.872L398.949 249.631C405.901 253.386 413.72 255.243 422.361 255.243V253.243ZM399.9 247.872L400.854 246.114C394.61 242.726 389.654 237.742 385.981 231.101L384.23 232.069L382.48 233.037C386.501 240.305 391.992 245.856 398.946 249.63L399.9 247.872ZM384.23 232.069L385.984 231.107C382.366 224.516 380.504 216.359 380.504 206.545H378.504H376.504C376.504 216.855 378.46 225.714 382.477 233.032L384.23 232.069ZM378.504 206.545H380.504C380.504 196.677 382.409 188.514 386.106 181.96L384.364 180.977L382.622 179.995C378.506 187.29 376.504 196.173 376.504 206.545H378.504ZM384.364 180.977L386.107 181.957C389.839 175.313 394.838 170.342 401.111 166.982L400.166 165.219L399.222 163.456C392.237 167.198 386.701 172.733 382.62 179.998L384.364 180.977ZM400.166 165.219L401.117 166.979C407.429 163.569 414.496 161.848 422.361 161.848V159.848V157.848C413.89 157.848 406.161 159.708 399.216 163.459L400.166 165.219ZM422.361 159.848V161.848C427.919 161.848 432.99 162.607 437.589 164.103L438.208 162.201L438.826 160.299C433.778 158.657 428.285 157.848 422.361 157.848V159.848ZM438.208 162.201L437.589 164.103C442.19 165.599 446.195 167.775 449.626 170.62L450.903 169.081L452.18 167.541C448.332 164.35 443.873 161.939 438.826 160.299L438.208 162.201ZM450.903 169.081L449.634 170.627C453.05 173.432 455.808 176.895 457.908 181.038L459.692 180.134L461.476 179.23C459.137 174.614 456.035 170.708 452.172 167.535L450.903 169.081ZM459.692 180.134L457.908 181.038C459.994 185.155 461.283 189.914 461.739 195.349L463.732 195.182L465.725 195.015C465.233 189.145 463.829 183.872 461.476 179.23L459.692 180.134ZM479.929 252H477.929V254H479.929V252ZM479.929 161.091V159.091H477.929V161.091H479.929ZM504.609 161.091H506.609V159.091H504.609V161.091ZM504.609 196.602H502.609V198.602H504.609V196.602ZM537.28 196.602V198.602H539.28V196.602H537.28ZM537.28 161.091V159.091H535.28V161.091H537.28ZM561.96 161.091H563.96V159.091H561.96V161.091ZM561.96 252V254H563.96V252H561.96ZM537.28 252H535.28V254H537.28V252ZM537.28 216.489H539.28V214.489H537.28V216.489ZM504.609 216.489V214.489H502.609V216.489H504.609ZM504.609 252V254H506.609V252H504.609ZM479.929 252H481.929V161.091H479.929H477.929V252H479.929ZM479.929 161.091V163.091H504.609V161.091V159.091H479.929V161.091ZM504.609 161.091H502.609V196.602H504.609H506.609V161.091H504.609ZM504.609 196.602V198.602H537.28V196.602V194.602H504.609V196.602ZM537.28 196.602H539.28V161.091H537.28H535.28V196.602H537.28ZM537.28 161.091V163.091H561.96V161.091V159.091H537.28V161.091ZM561.96 161.091H559.96V252H561.96H563.96V161.091H561.96ZM561.96 252V250H537.28V252V254H561.96V252ZM537.28 252H539.28V216.489H537.28H535.28V252H537.28ZM537.28 216.489V214.489H504.609V216.489V218.489H537.28V216.489ZM504.609 216.489H502.609V252H504.609H506.609V216.489H504.609ZM504.609 252V250H479.929V252V254H504.609V252ZM602.294 252V254H603.779L604.208 252.578L602.294 252ZM575.66 252L573.761 251.373L572.894 254H575.66V252ZM605.667 161.091V159.091H604.221L603.768 160.464L605.667 161.091ZM639.403 161.091L641.302 160.464L640.849 159.091H639.403V161.091ZM669.41 252V254H672.177L671.309 251.373L669.41 252ZM642.777 252L640.862 252.578L641.291 254H642.777V252ZM622.89 186.126L624.805 185.548L624.376 184.126H622.89V186.126ZM622.18 186.126V184.126H620.695L620.265 185.548L622.18 186.126ZM597.322 216.134V214.134H595.322V216.134H597.322ZM647.393 216.134H649.393V214.134H647.393V216.134ZM647.393 234.599V236.599H649.393V234.599H647.393ZM597.322 234.599H595.322V236.599H597.322V234.599ZM602.294 252V250H575.66V252V254H602.294V252ZM575.66 252L577.559 252.627L607.567 161.718L605.667 161.091L603.768 160.464L573.761 251.373L575.66 252ZM605.667 161.091V163.091H639.403V161.091V159.091H605.667V161.091ZM639.403 161.091L637.504 161.718L667.511 252.627L669.41 252L671.309 251.373L641.302 160.464L639.403 161.091ZM669.41 252V250H642.777V252V254H669.41V252ZM642.777 252L644.691 251.422L624.805 185.548L622.89 186.126L620.976 186.704L640.862 252.578L642.777 252ZM622.89 186.126V184.126H622.18V186.126V188.126H622.89V186.126ZM622.18 186.126L620.265 185.548L600.379 251.422L602.294 252L604.208 252.578L624.095 186.704L622.18 186.126ZM597.322 216.134V218.134H647.393V216.134V214.134H597.322V216.134ZM647.393 216.134H645.393V234.599H647.393H649.393V216.134H647.393ZM647.393 234.599V232.599H597.322V234.599V236.599H647.393V234.599ZM597.322 234.599H599.322V216.134H597.322H595.322V234.599H597.322ZM707.846 161.091H709.846V159.091H707.846V161.091ZM707.846 252V254H709.846V252H707.846ZM683.166 252H681.166V254H683.166V252ZM683.166 161.091V159.091H681.166V161.091H683.166ZM707.846 161.091H705.846V252H707.846H709.846V161.091H707.846ZM707.846 252V250H683.166V252V254H707.846V252ZM683.166 252H685.166V161.091H683.166H681.166V252H683.166ZM683.166 161.091V163.091H707.846V161.091V159.091H683.166V161.091ZM803.201 161.091H805.201V159.091H803.201V161.091ZM803.201 252V254H805.201V252H803.201ZM782.604 252L780.956 253.133L781.552 254H782.604V252ZM749.756 204.237L751.404 203.104L750.808 202.237H749.756V204.237ZM749.223 204.237V202.237H747.223V204.237H749.223ZM749.223 252V254H751.223V252H749.223ZM724.543 252H722.543V254H724.543V252ZM724.543 161.091V159.091H722.543V161.091H724.543ZM745.495 161.091L747.149 159.967L746.554 159.091H745.495V161.091ZM777.81 208.676L776.155 209.8L776.751 210.676H777.81V208.676ZM778.52 208.676V210.676H780.52V208.676H778.52ZM778.52 161.091V159.091H776.52V161.091H778.52ZM803.201 161.091H801.201V252H803.201H805.201V161.091H803.201ZM803.201 252V250H782.604V252V254H803.201V252ZM782.604 252L784.252 250.867L751.404 203.104L749.756 204.237L748.108 205.371L780.956 253.133L782.604 252ZM749.756 204.237V202.237H749.223V204.237V206.237H749.756V204.237ZM749.223 204.237H747.223V252H749.223H751.223V204.237H749.223ZM749.223 252V250H724.543V252V254H749.223V252ZM724.543 252H726.543V161.091H724.543H722.543V252H724.543ZM724.543 161.091V163.091H745.495V161.091V159.091H724.543V161.091ZM745.495 161.091L743.84 162.215L776.155 209.8L777.81 208.676L779.465 207.553L747.149 159.967L745.495 161.091ZM777.81 208.676V210.676H778.52V208.676V206.676H777.81V208.676ZM778.52 208.676H780.52V161.091H778.52H776.52V208.676H778.52ZM778.52 161.091V163.091H803.201V161.091V159.091H778.52V161.091Z" fill="black" mask="url(#path-16-outside-1_525_1702)"/>
</svg>
