<svg width="844" height="292" fill="none" xmlns="http://www.w3.org/2000/svg"><path d="m47.5 19 59-7-88 56.5m17-42L12 65m1.5 16.5 5 47.5m4.5 16.5 25.5 49m14 15 30.5 30m13.5 12.5 46.5 24.5m20-2.5 43.5-22m16-12.5 29.5-30m13.5-17 24.5-44m7.5-19.5 4.5-47m-4.5-19.5-20-29.5m-15-16-53-5M202 17l-31.5 28m-15 0-36-28m-4.5 4.5L159 268m-94-66.5L214 243m-112-9.5 55.5-171m-45.5 177 150-39M166 271 302.5 79.5M223 235 209.5 21.5m-36.5 29 99.5-25m-254 54 243.5 115m-206.5 0L272.5 30M26 135h270.5M26 133l127-79.5m-100.5-28 100.5 25M38.5 33 23 129M216.5 21.5l86 107.5" stroke="#2F9FDF" stroke-width="4"/><circle cx="42.5" cy="22.5" r="12.5" fill="#FFBB17"/><circle cx="12.5" cy="73.5" r="12.5" fill="#FFBB17"/><circle cx="20.5" cy="136.5" r="12.5" fill="#FFBB17"/><circle cx="54.5" cy="200.5" r="12.5" fill="#FFBB17"/><circle cx="100.5" cy="243.5" r="12.5" fill="#FFBB17"/><circle cx="162.5" cy="279.5" r="12.5" fill="#FFBB17"/><circle cx="223.5" cy="243.5" r="12.5" fill="#FFBB17"/><circle cx="270.5" cy="200.5" r="12.5" fill="#FFBB17"/><circle cx="304.5" cy="139.5" r="12.5" fill="#FFBB17"/><circle cx="310.5" cy="73.5" r="12.5" fill="#FFBB17"/><circle cx="282.5" cy="22.5" r="12.5" fill="#FFBB17"/><circle cx="210.5" cy="12.5" r="12.5" fill="#FFBB17"/><circle cx="162.5" cy="53.5" r="12.5" fill="#FFBB17"/><circle cx="114.5" cy="13.5" r="12.5" fill="#FFBB17"/><mask id="a" maskUnits="userSpaceOnUse" x="376" y="35" width="468" height="221" fill="#000"><path fill="#fff" d="M376 35h468v221H376z"/><path d="M378.859 39.09h30.718l21.129 51.492h1.065l21.13-51.491h30.717V130H459.47V77.443h-.71l-20.242 51.847h-14.559l-20.242-52.202h-.71V130h-24.148V39.09ZM495.314 130V39.09h65.519v19.887h-40.838v15.625h37.464V94.49h-37.464v15.625h40.66V130h-65.341Zm77.759 0V39.09h39.24c6.747 0 12.651 1.229 17.712 3.685 5.06 2.456 8.996 5.993 11.807 10.61 2.811 4.616 4.217 10.15 4.217 16.6 0 6.511-1.45 12-4.35 16.47-2.871 4.468-6.91 7.841-12.118 10.12-5.179 2.279-11.231 3.418-18.155 3.418h-23.438V80.817h18.466c2.9 0 5.371-.355 7.413-1.066 2.071-.74 3.655-1.908 4.75-3.506 1.124-1.598 1.686-3.685 1.686-6.26 0-2.603-.562-4.72-1.686-6.347-1.095-1.657-2.679-2.87-4.75-3.64-2.042-.799-4.513-1.198-7.413-1.198h-8.7V130h-24.681Zm53.267-41.726L649.068 130h-26.812l-22.194-41.726h26.278Zm115.101-15.092h-25.035c-.178-2.072-.651-3.95-1.42-5.638a12.729 12.729 0 0 0-3.108-4.35c-1.302-1.243-2.885-2.19-4.749-2.84-1.865-.681-3.981-1.022-6.348-1.022-4.143 0-7.65 1.007-10.52 3.019-2.841 2.012-5.001 4.898-6.481 8.656-1.45 3.758-2.175 8.27-2.175 13.538 0 5.564.74 10.225 2.219 13.983 1.51 3.729 3.685 6.54 6.526 8.434 2.84 1.864 6.258 2.797 10.253 2.797 2.279 0 4.321-.282 6.126-.844 1.805-.592 3.374-1.435 4.705-2.53a13.108 13.108 0 0 0 3.241-3.951c.858-1.568 1.435-3.329 1.731-5.282l25.035.177c-.295 3.848-1.376 7.769-3.24 11.764-1.864 3.965-4.513 7.635-7.946 11.008-3.403 3.344-7.62 6.037-12.651 8.079-5.03 2.042-10.875 3.063-17.533 3.063-8.345 0-15.832-1.79-22.461-5.371-6.599-3.581-11.823-8.848-15.67-15.803-3.817-6.954-5.726-15.462-5.726-25.523 0-10.121 1.953-18.644 5.86-25.569 3.906-6.954 9.173-12.207 15.802-15.758 6.629-3.58 14.027-5.371 22.195-5.371 5.741 0 11.023.784 15.847 2.353 4.823 1.568 9.055 3.861 12.695 6.88 3.64 2.989 6.57 6.673 8.789 11.053 2.22 4.38 3.566 9.396 4.039 15.048Zm7.469-34.091h27.521l17.756 36.932h.71l17.756-36.932h27.521l-33.38 62.322V130h-24.503v-28.587L748.91 39.091ZM463.732 195.182h-25.036c-.178-2.072-.651-3.951-1.42-5.638a12.742 12.742 0 0 0-3.108-4.35c-1.302-1.243-2.885-2.19-4.749-2.841-1.865-.68-3.981-1.021-6.348-1.021-4.143 0-7.65 1.007-10.52 3.019-2.841 2.012-5.001 4.897-6.481 8.656-1.45 3.758-2.175 8.271-2.175 13.538 0 5.564.74 10.225 2.219 13.983 1.51 3.729 3.685 6.54 6.526 8.434 2.84 1.864 6.258 2.797 10.253 2.797 2.279 0 4.321-.282 6.126-.844 1.805-.592 3.374-1.435 4.705-2.53a13.108 13.108 0 0 0 3.241-3.951c.858-1.568 1.435-3.329 1.731-5.282l25.036.178c-.296 3.847-1.377 7.768-3.241 11.763-1.864 3.965-4.513 7.635-7.946 11.008-3.403 3.344-7.62 6.037-12.65 8.079-5.031 2.042-10.876 3.063-17.534 3.063-8.345 0-15.832-1.79-22.461-5.371-6.599-3.581-11.822-8.848-15.67-15.803-3.817-6.954-5.726-15.462-5.726-25.524 0-10.12 1.953-18.643 5.86-25.568 3.906-6.954 9.173-12.207 15.802-15.758 6.629-3.581 14.027-5.371 22.195-5.371 5.741 0 11.023.784 15.847 2.353 4.823 1.568 9.055 3.861 12.695 6.88 3.64 2.989 6.57 6.673 8.789 11.053 2.22 4.38 3.566 9.396 4.04 15.048ZM479.929 252v-90.909h24.68v35.511h32.671v-35.511h24.68V252h-24.68v-35.511h-32.671V252h-24.68Zm122.365 0H575.66l30.007-90.909h33.736L669.41 252h-26.633l-19.887-65.874h-.71L602.294 252Zm-4.972-35.866h50.071v18.465h-50.071v-18.465Zm110.524-55.043V252h-24.68v-90.909h24.68Zm95.355 0V252h-20.597l-32.848-47.763h-.533V252h-24.68v-90.909h20.952l32.315 47.585h.71v-47.585h24.681Z"/></mask><path d="M378.859 39.09v-2h-2v2h2Zm30.718 0 1.85-.758-.509-1.241h-1.341v2Zm21.129 51.492-1.85.76.509 1.24h1.341v-2Zm1.065 0v2h1.341l.51-1.24-1.851-.76Zm21.13-51.491v-2h-1.342l-.509 1.24 1.851.76Zm30.717 0h2v-2h-2v2Zm0 90.909v2h2v-2h-2Zm-24.148 0h-2v2h2v-2Zm0-52.557h2v-2h-2v2Zm-.71 0v-2h-1.366l-.497 1.273 1.863.727Zm-20.242 51.847v2h1.367l.497-1.273-1.864-.727Zm-14.559 0-1.865.723.495 1.277h1.37v-2Zm-20.242-52.202 1.865-.723-.495-1.277h-1.37v2Zm-.71 0v-2h-2v2h2Zm0 52.912v2h2v-2h-2Zm-24.148 0h-2v2h2v-2Zm0-90.91v2h30.718v-4h-30.718v2Zm30.718 0-1.851.76 21.13 51.492 1.85-.76 1.85-.759-21.129-51.491-1.85.759Zm21.129 51.492v2h1.065v-4h-1.065v2Zm1.065 0 1.851.76 21.129-51.492-1.85-.76-1.851-.758-21.129 51.491 1.85.76Zm21.13-51.491v2h30.717v-4h-30.717v2Zm30.717 0h-2V130h4V39.09h-2Zm0 90.909v-2H459.47v4h24.148v-2Zm-24.148 0h2V77.443h-4V130h2Zm0-52.557v-2h-.71v4h.71v-2Zm-.71 0-1.863-.727-20.242 51.846 1.863.728 1.864.727 20.241-51.846-1.863-.728Zm-20.242 51.847v-2h-14.559v4h14.559v-2Zm-14.559 0 1.865-.723-20.242-52.202-1.865.723-1.864.723 20.241 52.202 1.865-.723Zm-20.242-52.202v-2h-.71v4h.71v-2Zm-.71 0h-2V130h4V77.088h-2Zm0 52.912v-2h-24.148v4h24.148v-2Zm-24.148 0h2V39.09h-4V130h2Zm116.455 0h-2v2h2v-2Zm0-90.91v-2h-2v2h2Zm65.519 0h2v-2h-2v2Zm0 19.887v2h2v-2h-2Zm-40.838 0v-2h-2v2h2Zm0 15.625h-2v2h2v-2Zm37.464 0h2v-2h-2v2Zm0 19.887v2h2v-2h-2Zm-37.464 0v-2h-2v2h2Zm0 15.625h-2v2h2v-2Zm40.66 0h2v-2h-2v2Zm0 19.886v2h2v-2h-2Zm-65.341 0h2V39.09h-4V130h2Zm0-90.91v2h65.519v-4h-65.519v2Zm65.519 0h-2v19.887h4V39.091h-2Zm0 19.887v-2h-40.838v4h40.838v-2Zm-40.838 0h-2v15.625h4V58.977h-2Zm0 15.625v2h37.464v-4h-37.464v2Zm37.464 0h-2V94.49h4V74.602h-2Zm0 19.887v-2h-37.464v4h37.464v-2Zm-37.464 0h-2v15.625h4V94.489h-2Zm0 15.625v2h40.66v-4h-40.66v2Zm40.66 0h-2V130h4v-19.886h-2Zm0 19.886v-2h-65.341v4h65.341v-2Zm12.418 0h-2v2h2v-2Zm0-90.91v-2h-2v2h2Zm56.952 3.685-.874 1.8.874-1.8Zm11.807 10.61 1.708-1.041-1.708 1.04Zm-.133 33.07-1.678-1.09-.005.008 1.683 1.081Zm-12.118 10.12-.802-1.832-.004.001.806 1.83Zm-41.593 3.418h-2v2h2v-2Zm0-19.176v-2h-2v2h2Zm25.879-1.066.657 1.89.008-.003.008-.003-.673-1.884Zm4.75-3.506-1.636-1.151-.007.01-.007.01 1.65 1.13Zm0-12.607-1.669 1.103.011.017.012.017 1.646-1.137Zm-4.75-3.64-.729 1.863.016.006.017.006.696-1.875ZM597.754 58.8v-2h-2v2h2Zm0 71.2v2h2v-2h-2Zm28.586-41.726 1.757-.957-.569-1.043h-1.188v2ZM649.068 130v2h3.366l-1.61-2.957-1.756.957Zm-26.812 0-1.765.939.564 1.061h1.201v-2Zm-22.194-41.726v-2h-3.329l1.563 2.94 1.766-.94ZM573.073 130h2V39.09h-4V130h2Zm0-90.91v2h39.24v-4h-39.24v2Zm39.24 0v2c6.505 0 12.099 1.184 16.838 3.484l.874-1.799.873-1.799c-5.382-2.612-11.595-3.885-18.585-3.885v2Zm17.712 3.685-.874 1.8c4.73 2.295 8.37 5.575 10.973 9.85l1.708-1.04 1.708-1.041c-3.019-4.958-7.251-8.751-12.642-11.368l-.873 1.8Zm11.807 10.61-1.708 1.04c2.586 4.247 3.925 9.405 3.925 15.56h4c0-6.746-1.472-12.655-4.509-17.641l-1.708 1.04Zm4.217 16.6h-2c0 6.211-1.381 11.302-4.028 15.38l1.678 1.09 1.678 1.088c3.153-4.858 4.672-10.747 4.672-17.557h-2Zm-4.35 16.47-1.683-1.082c-2.642 4.113-6.363 7.237-11.237 9.37l.802 1.832.801 1.832c5.543-2.425 9.901-6.048 13-10.872l-1.683-1.08Zm-12.118 10.12-.806-1.83c-4.875 2.144-10.642 3.248-17.349 3.248v4c7.141 0 13.477-1.175 18.96-3.587l-.805-1.831Zm-18.155 3.418v-2h-23.438v4h23.438v-2Zm-23.438 0h2V80.817h-4v19.176h2Zm0-19.176v2h18.466v-4h-18.466v2Zm18.466 0v2c3.052 0 5.758-.373 8.07-1.177l-.657-1.889-.657-1.889c-1.772.617-4.008.955-6.756.955v2Zm7.413-1.066.673 1.884c2.412-.862 4.362-2.268 5.726-4.26l-1.649-1.13-1.65-1.13c-.825 1.204-2.042 2.135-3.773 2.753l.673 1.883Zm4.75-3.506 1.635 1.15c1.427-2.027 2.051-4.552 2.051-7.41h-4c0 2.293-.5 3.94-1.322 5.109l1.636 1.15Zm1.686-6.26h2c0-2.883-.623-5.43-2.041-7.484l-1.645 1.137-1.646 1.137c.831 1.202 1.332 2.886 1.332 5.21h2Zm-1.686-6.347 1.668-1.102c-1.355-2.051-3.299-3.513-5.722-4.413l-.696 1.875-.696 1.875c1.72.64 2.942 1.604 3.777 2.868l1.669-1.103Zm-4.75-3.64.729-1.862c-2.336-.914-5.069-1.336-8.142-1.336v4c2.727 0 4.936.377 6.684 1.06l.729-1.862Zm-7.413-1.198v-2h-8.7v4h8.7v-2Zm-8.7 0h-2V130h4V58.8h-2Zm0 71.2v-2h-24.681v4h24.681v-2Zm28.586-41.726-1.756.957 22.727 41.726 1.757-.957 1.756-.957-22.727-41.726-1.757.957ZM649.068 130v-2h-26.812v4h26.812v-2Zm-26.812 0 1.766-.939-22.194-41.726-1.766.94-1.766.938 22.195 41.726 1.765-.939Zm-22.194-41.726v2h26.278v-4h-26.278v2Zm141.379-15.092v2h2.175l-.181-2.167-1.994.167Zm-25.035 0-1.993.17.157 1.83h1.836v-2Zm-1.42-5.638-1.832.804.006.013.006.013 1.82-.83Zm-3.108-4.35-1.381 1.447.017.016.017.016 1.347-1.479Zm-4.749-2.84-.686 1.878.013.005.013.005.66-1.889Zm-16.868 1.997-1.148-1.638-.008.006 1.156 1.632Zm-6.481 8.656-1.861-.733-.005.013 1.866.72Zm.044 27.521-1.861.733.004.009.003.008 1.854-.75Zm6.526 8.434-1.11 1.664.006.004.006.004 1.098-1.672Zm16.379 1.953.595 1.91.014-.005.014-.004-.623-1.901Zm4.705-2.53 1.271 1.545-1.271-1.545Zm3.241-3.951-1.755-.96-.006.012 1.761.948Zm1.731-5.282.014-2-1.732-.012-.259 1.712 1.977.3Zm25.035.177 1.995.154.164-2.138-2.144-.015-.015 2Zm-3.24 11.764 1.81.851.002-.006-1.812-.845Zm-7.946 11.008 1.402 1.427-1.402-1.427Zm-12.651 8.079-.752-1.853.752 1.853Zm-39.994-2.308-.954 1.758.003.001.951-1.759Zm-15.67-15.803-1.753.963.003.005 1.75-.968Zm.134-51.092 1.742.983.001-.003-1.743-.98Zm15.802-15.758.945 1.763.006-.003-.951-1.76Zm38.042-3.018.618-1.902-.618 1.902Zm12.695 6.88-1.277 1.54.008.006 1.269-1.546Zm8.789 11.053-1.784.904 1.784-.904Zm4.039 15.048v-2h-25.035v4h25.035v-2Zm-25.035 0 1.993-.171c-.195-2.272-.719-4.378-1.594-6.297l-1.819.83-1.82.83c.664 1.455 1.087 3.108 1.247 4.979l1.993-.171Zm-1.42-5.638 1.831-.803a14.725 14.725 0 0 0-3.592-5.025l-1.347 1.478-1.347 1.479a10.73 10.73 0 0 1 2.623 3.675l1.832-.804Zm-3.108-4.35 1.381-1.447c-1.527-1.458-3.364-2.546-5.471-3.282l-.659 1.888-.66 1.889c1.622.566 2.952 1.371 4.028 2.399l1.381-1.447Zm-4.749-2.84.686-1.88c-2.122-.774-4.477-1.142-7.034-1.142v4c2.177 0 4.055.313 5.662.9l.686-1.879Zm-6.348-1.022v-2c-4.477 0-8.404 1.093-11.668 3.381l1.148 1.638 1.148 1.638c2.476-1.736 5.563-2.657 9.372-2.657v-2Zm-10.52 3.019-1.156-1.632c-3.207 2.271-5.587 5.494-7.186 9.555l1.861.733 1.861.732c1.36-3.455 3.301-6.003 5.776-7.756l-1.156-1.632Zm-6.481 8.656-1.866-.72c-1.561 4.046-2.309 8.817-2.309 14.258h4c0-5.093.702-9.348 2.041-12.818l-1.866-.72Zm-2.175 13.538h-2c0 5.727.759 10.654 2.358 14.716l1.861-.733 1.861-.733c-1.36-3.454-2.08-7.849-2.08-13.25h-2Zm2.219 13.983-1.854.75c1.633 4.034 4.039 7.194 7.27 9.348l1.11-1.664 1.109-1.664c-2.451-1.634-4.395-4.096-5.781-7.52l-1.854.75Zm6.526 8.434-1.098 1.672c3.221 2.114 7.036 3.125 11.351 3.125v-4c-3.675 0-6.695-.854-9.156-2.469l-1.097 1.672Zm10.253 2.797v2c2.441 0 4.688-.301 6.721-.934l-.595-1.91-.595-1.909c-1.577.491-3.414.753-5.531.753v2Zm6.126-.844.623 1.901c2.017-.662 3.811-1.618 5.353-2.886l-1.271-1.545-1.27-1.545c-1.121.922-2.465 1.652-4.058 2.175l.623 1.9Zm4.705-2.53 1.271 1.545a15.12 15.12 0 0 0 3.731-4.547l-1.761-.949-1.761-.948a11.102 11.102 0 0 1-2.75 3.354l1.27 1.545Zm3.241-3.951 1.754.96c.982-1.794 1.627-3.782 1.954-5.942l-1.977-.3-1.977-.3c-.265 1.746-.774 3.28-1.509 4.622l1.755.96Zm1.731-5.282-.014 2 25.035.177.014-2 .015-2-25.036-.177-.014 2Zm25.035.177-1.994-.153c-.275 3.576-1.281 7.263-3.058 11.071l1.812.846 1.812.845c1.952-4.182 3.106-8.337 3.423-12.455l-1.995-.154Zm-3.24 11.764-1.81-.851c-1.754 3.731-4.257 7.209-7.537 10.433l1.401 1.426 1.402 1.427c3.585-3.524 6.379-7.384 8.354-11.584l-1.81-.851Zm-7.946 11.008-1.401-1.426c-3.193 3.137-7.18 5.695-12.002 7.652l.752 1.853.753 1.853c5.24-2.127 9.686-4.954 13.3-8.505l-1.402-1.427Zm-12.651 8.079-.752-1.853c-4.744 1.926-10.324 2.916-16.781 2.916v4c6.859 0 12.969-1.052 18.286-3.21l-.753-1.853Zm-17.533 3.063v-2c-8.05 0-15.204-1.724-21.511-5.131l-.95 1.76-.951 1.759c6.952 3.755 14.771 5.612 23.412 5.612v-2Zm-22.461-5.371.954-1.758c-6.244-3.388-11.2-8.372-14.874-15.013l-1.75.968-1.75.968c4.021 7.268 9.512 12.819 16.466 16.593l.954-1.758Zm-15.67-15.803 1.754-.962c-3.618-6.591-5.48-14.748-5.48-24.561h-4c0 10.31 1.956 19.168 5.973 26.486l1.753-.963Zm-5.726-25.523h2c0-9.87 1.905-18.032 5.602-24.586l-1.742-.983-1.742-.982c-4.116 7.295-6.118 16.178-6.118 26.55h2Zm5.86-25.569 1.743.98c3.732-6.644 8.731-11.615 15.004-14.975l-.945-1.763-.944-1.763c-6.985 3.742-12.521 9.277-16.602 16.542l1.744.98Zm15.802-15.758.951 1.76c6.312-3.41 13.379-5.131 21.244-5.131v-4c-8.471 0-16.2 1.86-23.145 5.611l.95 1.76Zm22.195-5.371v2c5.558 0 10.629.76 15.228 2.255l.619-1.902.618-1.902c-5.048-1.642-10.542-2.451-16.465-2.451v2Zm15.847 2.353-.619 1.902c4.601 1.496 8.606 3.672 12.037 6.517l1.277-1.539 1.277-1.54c-3.849-3.19-8.308-5.601-13.354-7.242l-.618 1.902Zm12.695 6.88-1.269 1.546c3.416 2.805 6.174 6.268 8.274 10.41l1.784-.903 1.784-.904c-2.339-4.616-5.441-8.522-9.304-11.695l-1.269 1.546Zm8.789 11.053-1.784.904c2.086 4.117 3.375 8.876 3.83 14.31l1.993-.166 1.994-.167c-.492-5.87-1.896-11.143-4.249-15.785l-1.784.904ZM748.91 39.09v-2h-3.34l1.577 2.944 1.763-.944Zm27.521 0 1.803-.867-.545-1.133h-1.258v2Zm17.756 36.932-1.803.866.545 1.134h1.258v-2Zm.71 0v2h1.258l.545-1.134-1.803-.866Zm17.756-36.932v-2h-1.258l-.545 1.133 1.803.867Zm27.521 0 1.763.944 1.577-2.944h-3.34v2Zm-33.38 62.322-1.764-.944-.236.442v.502h2Zm0 28.587v2h2v-2h-2Zm-24.503 0h-2v2h2v-2Zm0-28.587h2v-.502l-.237-.442-1.763.944ZM748.91 39.091v2h27.521v-4H748.91v2Zm27.521 0-1.802.867 17.755 36.931 1.803-.866 1.802-.867-17.755-36.932-1.803.867Zm17.756 36.932v2h.71v-4h-.71v2Zm.71 0 1.803.866 17.755-36.931-1.802-.867-1.803-.867-17.755 36.932 1.802.867Zm17.756-36.932v2h27.521v-4h-27.521v2Zm27.521 0-1.763-.944-33.381 62.322 1.764.944 1.763.945 33.38-62.323-1.763-.944Zm-33.38 62.322h-2V130h4v-28.587h-2Zm0 28.587v-2h-24.503v4h24.503v-2Zm-24.503 0h2v-28.587h-4V130h2Zm0-28.587 1.763-.944-33.381-62.322-1.763.944-1.763.944 33.381 62.323 1.763-.945Zm-318.559 93.769v2h2.174l-.181-2.167-1.993.167Zm-25.036 0-1.993.171.157 1.829h1.836v-2Zm-1.42-5.638-1.832.804.006.013.006.013 1.82-.83Zm-3.108-4.35-1.381 1.447.017.016.017.016 1.347-1.479Zm-4.749-2.841-.686 1.879.013.005.013.005.66-1.889Zm-16.868 1.998-1.148-1.638-.008.006 1.156 1.632Zm-6.481 8.656-1.861-.733-.005.013 1.866.72Zm.044 27.521-1.861.733.004.009.003.008 1.854-.75Zm6.526 8.434-1.11 1.664.006.004.006.004 1.098-1.672Zm16.379 1.953.595 1.91.014-.005.014-.004-.623-1.901Zm4.705-2.53 1.271 1.545-1.271-1.545Zm3.241-3.951-1.755-.96-.006.012 1.761.948Zm1.731-5.282.014-2-1.732-.012-.259 1.712 1.977.3Zm25.036.178 1.994.153.164-2.138-2.144-.015-.014 2Zm-3.241 11.763 1.81.851.002-.006-1.812-.845Zm-7.946 11.008 1.402 1.427-1.402-1.427Zm-12.65 8.079-.753-1.853.753 1.853Zm-39.995-2.308-.954 1.758.003.001.951-1.759Zm-15.67-15.803-1.753.963.003.005 1.75-.968Zm.134-51.092 1.742.983.001-.003-1.743-.98Zm15.802-15.758.945 1.763.006-.003-.951-1.76Zm38.042-3.018.618-1.902-.618 1.902Zm12.695 6.88-1.277 1.539.008.007 1.269-1.546Zm8.789 11.053-1.784.904 1.784-.904Zm4.04 15.048v-2h-25.036v4h25.036v-2Zm-25.036 0 1.993-.171c-.195-2.272-.719-4.378-1.594-6.297l-1.819.83-1.82.83c.664 1.455 1.087 3.108 1.247 4.979l1.993-.171Zm-1.42-5.638 1.831-.803a14.725 14.725 0 0 0-3.592-5.025l-1.347 1.478-1.347 1.479a10.719 10.719 0 0 1 2.623 3.675l1.832-.804Zm-3.108-4.35 1.381-1.446c-1.527-1.459-3.364-2.547-5.471-3.283l-.659 1.888-.66 1.889c1.622.566 2.952 1.371 4.028 2.399l1.381-1.447Zm-4.749-2.841.686-1.878c-2.122-.775-4.477-1.143-7.034-1.143v4c2.177 0 4.055.313 5.662.9l.686-1.879Zm-6.348-1.021v-2c-4.477 0-8.404 1.093-11.668 3.381l1.148 1.638 1.148 1.638c2.476-1.737 5.563-2.657 9.372-2.657v-2Zm-10.52 3.019-1.156-1.632c-3.207 2.271-5.587 5.494-7.186 9.555l1.861.733 1.861.732c1.36-3.455 3.301-6.003 5.776-7.756l-1.156-1.632Zm-6.481 8.656-1.866-.72c-1.561 4.046-2.309 8.817-2.309 14.258h4c0-5.093.702-9.348 2.041-12.818l-1.866-.72Zm-2.175 13.538h-2c0 5.726.759 10.654 2.358 14.716l1.861-.733 1.861-.733c-1.36-3.455-2.08-7.849-2.08-13.25h-2Zm2.219 13.983-1.854.75c1.633 4.034 4.039 7.194 7.27 9.348l1.11-1.664 1.109-1.664c-2.45-1.634-4.395-4.096-5.781-7.52l-1.854.75Zm6.526 8.434-1.098 1.672c3.221 2.114 7.036 3.125 11.351 3.125v-4c-3.674 0-6.695-.854-9.156-2.469l-1.097 1.672Zm10.253 2.797v2c2.441 0 4.688-.301 6.721-.934l-.595-1.91-.595-1.909c-1.577.491-3.414.753-5.531.753v2Zm6.126-.844.623 1.901c2.017-.662 3.811-1.618 5.353-2.886l-1.271-1.545-1.27-1.545c-1.121.922-2.465 1.652-4.058 2.175l.623 1.9Zm4.705-2.53 1.271 1.545a15.12 15.12 0 0 0 3.731-4.547l-1.761-.949-1.761-.948a11.102 11.102 0 0 1-2.75 3.354l1.27 1.545Zm3.241-3.951 1.754.96c.982-1.794 1.627-3.782 1.954-5.942l-1.977-.3-1.977-.3c-.265 1.746-.774 3.28-1.509 4.622l1.755.96Zm1.731-5.282-.014 2 25.035.177.015-1.999.014-2-25.036-.178-.014 2Zm25.036.178-1.995-.154c-.275 3.576-1.281 7.263-3.058 11.071l1.812.846 1.812.845c1.952-4.182 3.106-8.337 3.423-12.455l-1.994-.153Zm-3.241 11.763-1.81-.851c-1.754 3.731-4.257 7.209-7.537 10.433l1.401 1.426 1.402 1.427c3.586-3.524 6.379-7.384 8.354-11.584l-1.81-.851Zm-7.946 11.008-1.401-1.426c-3.193 3.137-7.18 5.695-12.002 7.652l.753 1.853.752 1.853c5.24-2.127 9.687-4.954 13.3-8.505l-1.402-1.427Zm-12.65 8.079-.753-1.853c-4.744 1.926-10.324 2.916-16.781 2.916v4c6.859 0 12.969-1.052 18.286-3.21l-.752-1.853Zm-17.534 3.063v-2c-8.05 0-15.204-1.724-21.511-5.131l-.95 1.76-.951 1.759c6.952 3.755 14.771 5.612 23.412 5.612v-2Zm-22.461-5.371.954-1.758c-6.244-3.388-11.2-8.372-14.873-15.013l-1.751.968-1.75.968c4.021 7.268 9.512 12.819 16.466 16.593l.954-1.758Zm-15.67-15.803 1.754-.962c-3.618-6.591-5.48-14.748-5.48-24.562h-4c0 10.31 1.956 19.169 5.973 26.487l1.753-.963Zm-5.726-25.524h2c0-9.868 1.905-18.031 5.602-24.585l-1.742-.983-1.742-.982c-4.116 7.295-6.118 16.178-6.118 26.55h2Zm5.86-25.568 1.743.98c3.732-6.644 8.731-11.615 15.004-14.975l-.945-1.763-.944-1.763c-6.985 3.742-12.521 9.277-16.602 16.542l1.744.979Zm15.802-15.758.951 1.76c6.312-3.41 13.379-5.131 21.244-5.131v-4c-8.471 0-16.2 1.86-23.145 5.611l.95 1.76Zm22.195-5.371v2c5.558 0 10.629.759 15.228 2.255l.619-1.902.618-1.902c-5.048-1.642-10.541-2.451-16.465-2.451v2Zm15.847 2.353-.619 1.902c4.601 1.496 8.606 3.672 12.037 6.517l1.277-1.539 1.277-1.54c-3.848-3.191-8.307-5.602-13.354-7.242l-.618 1.902Zm12.695 6.88-1.269 1.546c3.416 2.805 6.174 6.268 8.274 10.411l1.784-.904 1.784-.904c-2.339-4.616-5.441-8.522-9.304-11.695l-1.269 1.546Zm8.789 11.053-1.784.904c2.086 4.117 3.375 8.876 3.831 14.311l1.993-.167 1.993-.167c-.492-5.87-1.896-11.143-4.249-15.785l-1.784.904ZM479.929 252h-2v2h2v-2Zm0-90.909v-2h-2v2h2Zm24.68 0h2v-2h-2v2Zm0 35.511h-2v2h2v-2Zm32.671 0v2h2v-2h-2Zm0-35.511v-2h-2v2h2Zm24.68 0h2v-2h-2v2Zm0 90.909v2h2v-2h-2Zm-24.68 0h-2v2h2v-2Zm0-35.511h2v-2h-2v2Zm-32.671 0v-2h-2v2h2Zm0 35.511v2h2v-2h-2Zm-24.68 0h2v-90.909h-4V252h2Zm0-90.909v2h24.68v-4h-24.68v2Zm24.68 0h-2v35.511h4v-35.511h-2Zm0 35.511v2h32.671v-4h-32.671v2Zm32.671 0h2v-35.511h-4v35.511h2Zm0-35.511v2h24.68v-4h-24.68v2Zm24.68 0h-2V252h4v-90.909h-2Zm0 90.909v-2h-24.68v4h24.68v-2Zm-24.68 0h2v-35.511h-4V252h2Zm0-35.511v-2h-32.671v4h32.671v-2Zm-32.671 0h-2V252h4v-35.511h-2Zm0 35.511v-2h-24.68v4h24.68v-2Zm97.685 0v2h1.485l.429-1.422-1.914-.578Zm-26.634 0-1.899-.627-.867 2.627h2.766v-2Zm30.007-90.909v-2h-1.446l-.453 1.373 1.899.627Zm33.736 0 1.899-.627-.453-1.373h-1.446v2ZM669.41 252v2h2.767l-.868-2.627-1.899.627Zm-26.633 0-1.915.578.429 1.422h1.486v-2Zm-19.887-65.874 1.915-.578-.429-1.422h-1.486v2Zm-.71 0v-2h-1.485l-.43 1.422 1.915.578Zm-24.858 30.008v-2h-2v2h2Zm50.071 0h2v-2h-2v2Zm0 18.465v2h2v-2h-2Zm-50.071 0h-2v2h2v-2ZM602.294 252v-2H575.66v4h26.634v-2Zm-26.634 0 1.899.627 30.008-90.909-1.9-.627-1.899-.627-30.007 90.909 1.899.627Zm30.007-90.909v2h33.736v-4h-33.736v2Zm33.736 0-1.899.627 30.007 90.909 1.899-.627 1.899-.627-30.007-90.909-1.899.627ZM669.41 252v-2h-26.633v4h26.633v-2Zm-26.633 0 1.914-.578-19.886-65.874-1.915.578-1.914.578 19.886 65.874 1.915-.578Zm-19.887-65.874v-2h-.71v4h.71v-2Zm-.71 0-1.915-.578-19.886 65.874 1.915.578 1.914.578 19.887-65.874-1.915-.578Zm-24.858 30.008v2h50.071v-4h-50.071v2Zm50.071 0h-2v18.465h4v-18.465h-2Zm0 18.465v-2h-50.071v4h50.071v-2Zm-50.071 0h2v-18.465h-4v18.465h2Zm110.524-73.508h2v-2h-2v2Zm0 90.909v2h2v-2h-2Zm-24.68 0h-2v2h2v-2Zm0-90.909v-2h-2v2h2Zm24.68 0h-2V252h4v-90.909h-2Zm0 90.909v-2h-24.68v4h24.68v-2Zm-24.68 0h2v-90.909h-4V252h2Zm0-90.909v2h24.68v-4h-24.68v2Zm120.035 0h2v-2h-2v2Zm0 90.909v2h2v-2h-2Zm-20.597 0-1.648 1.133.596.867h1.052v-2Zm-32.848-47.763 1.648-1.133-.596-.867h-1.052v2Zm-.533 0v-2h-2v2h2Zm0 47.763v2h2v-2h-2Zm-24.68 0h-2v2h2v-2Zm0-90.909v-2h-2v2h2Zm20.952 0 1.654-1.124-.595-.876h-1.059v2Zm32.315 47.585-1.655 1.124.596.876h1.059v-2Zm.71 0v2h2v-2h-2Zm0-47.585v-2h-2v2h2Zm24.681 0h-2V252h4v-90.909h-2Zm0 90.909v-2h-20.597v4h20.597v-2Zm-20.597 0 1.648-1.133-32.848-47.763-1.648 1.133-1.648 1.134 32.848 47.762 1.648-1.133Zm-32.848-47.763v-2h-.533v4h.533v-2Zm-.533 0h-2V252h4v-47.763h-2Zm0 47.763v-2h-24.68v4h24.68v-2Zm-24.68 0h2v-90.909h-4V252h2Zm0-90.909v2h20.952v-4h-20.952v2Zm20.952 0-1.655 1.124 32.315 47.585 1.655-1.124 1.655-1.123-32.316-47.586-1.654 1.124Zm32.315 47.585v2h.71v-4h-.71v2Zm.71 0h2v-47.585h-4v47.585h2Zm0-47.585v2h24.681v-4H778.52v2Z" fill="#000" mask="url(#a)"/></svg>