<svg aria-hidden="true" style="position:absolute;width:0;height:0;overflow:hidden" xmlns="http://www.w3.org/2000/svg"><defs>
<symbol id="icon-arms-with-heart" viewBox="0 0 32 32">
    <path fill="#ffde59" style="fill:var(--color1, #ffde59)" d="M29.396 7.521c-.925.108-1.358.837-1.342 1.787.054 2.542-.292 5.438-1.683 7.529-.546.817-1.204 1.358-1.996 2.013l1.079-2.063a1.33 1.33 0 0 0-.563-1.788 1.324 1.324 0 0 0-1.788.563l-3.254 6.242c-3.029 4.188-1.137 9.142-1.137 9.142l4.671.021c.025-2.392 1.496-4.429 1.496-4.429 6.579-7.733 6.096-15.233 6.054-17.154-.025-1.121-.612-1.967-1.538-1.862zM2.604 7.521c.925.108 1.358.837 1.342 1.787-.054 2.542.292 5.438 1.683 7.529.546.817 1.204 1.358 1.996 2.013l-1.079-2.063a1.324 1.324 0 1 1 2.35-1.225l3.254 6.242c3.029 4.188 1.142 9.142 1.142 9.142l-4.675.021c-.025-2.392-1.496-4.429-1.496-4.429C.542 18.805 1.025 11.305 1.067 9.384c.025-1.121.617-1.967 1.538-1.862z"/>
    <path fill="#004aad" style="fill:var(--color2, #004aad)" d="M22.375 9.45a3.705 3.705 0 0 0-3.708-3.708 3.706 3.706 0 0 0-2.988 1.513 3.705 3.705 0 1 0-5.674 4.749l5.504 5.579 6.088-5.862a3.7 3.7 0 0 0 .779-2.271z"/>
</symbol>

<symbol id="icon-envelope" viewBox="0 0 43 32">
<path d="M38.667 0H4C1.795 0 0 1.795 0 4v24c0 2.205 1.795 4 4 4h34.667c2.205 0 4-1.795 4-4V4c0-2.205-1.795-4-4-4zm0 2.667c.181 0 .355.037.512.104L21.334 18.238 3.489 2.771c.151-.065.327-.104.512-.104h34.667zm0 26.666H4A1.333 1.333 0 0 1 2.667 28V5.587l17.792 15.421c.233.203.539.327.875.327s.642-.124.876-.328l-.002.001L40 5.587V28c0 .736-.597 1.333-1.333 1.333z"/>
</symbol>
    
<symbol id="icon-instagram" viewBox="0 0 32 32">
    <path d="M31.122 9.757c-.071-1.61-.331-2.717-.704-3.676a7.397 7.397 0 0 0-1.752-2.687 7.439 7.439 0 0 0-2.682-1.746c-.965-.373-2.066-.633-3.676-.704-1.622-.077-2.137-.095-6.251-.095s-4.629.018-6.245.089c-1.61.071-2.717.332-3.676.704a7.41 7.41 0 0 0-2.688 1.752 7.452 7.452 0 0 0-1.746 2.682c-.373.965-.633 2.066-.704 3.676-.077 1.622-.095 2.137-.095 6.251s.018 4.629.089 6.245c.071 1.61.332 2.717.705 3.676a7.475 7.475 0 0 0 1.752 2.687 7.439 7.439 0 0 0 2.682 1.746c.965.373 2.066.633 3.676.704 1.616.071 2.131.089 6.245.089s4.629-.017 6.245-.089c1.61-.071 2.717-.331 3.676-.704a7.746 7.746 0 0 0 4.434-4.434c.373-.965.633-2.066.704-3.676.071-1.616.089-2.131.089-6.245s-.006-4.629-.077-6.245zM28.393 22.13c-.065 1.48-.314 2.279-.521 2.812a5.026 5.026 0 0 1-2.877 2.877c-.533.207-1.338.456-2.812.521-1.598.071-2.078.089-6.121.089s-4.529-.017-6.121-.089c-1.48-.065-2.279-.313-2.812-.521a4.664 4.664 0 0 1-1.74-1.131 4.712 4.712 0 0 1-1.131-1.74c-.207-.533-.456-1.338-.521-2.812-.071-1.598-.089-2.078-.089-6.121s.018-4.529.089-6.121c.065-1.48.314-2.279.521-2.812a4.617 4.617 0 0 1 1.137-1.741 4.712 4.712 0 0 1 1.74-1.131c.533-.207 1.338-.456 2.812-.521 1.598-.071 2.078-.089 6.121-.089 4.049 0 4.529.018 6.121.089 1.48.065 2.279.314 2.812.521a4.651 4.651 0 0 1 1.74 1.131 4.707 4.707 0 0 1 1.131 1.741c.207.533.456 1.338.521 2.812.071 1.598.089 2.078.089 6.121s-.018 4.517-.089 6.115z"/>
    <path d="M16.056 8.218c-4.298 0-7.784 3.487-7.784 7.784s3.487 7.784 7.784 7.784c4.298 0 7.784-3.487 7.784-7.784s-3.487-7.784-7.784-7.784zm0 12.834a5.05 5.05 0 1 1 .001-10.101 5.05 5.05 0 0 1-.001 10.101zM25.966 7.91a1.817 1.817 0 1 1-3.634 0 1.817 1.817 0 0 1 3.634 0z"/>
</symbol>

<symbol id="icon-logo" viewBox="0 0 32 32">
    <path  d="M30.554 15.329c0 .967-.092 1.921-.283 2.871a14.6 14.6 0 0 1-.837 2.758 14.71 14.71 0 0 1-5.416 6.6c-.804.538-1.65.992-2.542 1.363a14.78 14.78 0 0 1-8.5.833 14.886 14.886 0 0 1-2.758-.833A14.763 14.763 0 0 1 3.614 23.5c-.533-.8-.987-1.65-1.358-2.542a15.1 15.1 0 0 1-.837-2.758c-.188-.95-.279-1.904-.279-2.871s.092-1.921.279-2.871A15.21 15.21 0 0 1 2.256 9.7a14.676 14.676 0 0 1 3.191-4.771 14.763 14.763 0 0 1 4.771-3.192 15.181 15.181 0 0 1 2.758-.838C13.922.711 14.88.62 15.847.62s1.921.092 2.871.279c.946.192 1.867.471 2.758.838.892.371 1.738.825 2.542 1.363.804.533 1.546 1.146 2.229 1.829s1.292 1.425 1.829 2.229c.538.8.992 1.65 1.358 2.542.371.892.65 1.813.837 2.758.192.95.283 1.904.283 2.871z"/>
    <path stroke-width=".8" d="M16.975 11.058c.004.142-.017.279-.067.412a1.064 1.064 0 0 1-1.724.424 1.045 1.045 0 0 1-.346-.742.981.981 0 0 1 .063-.412c.046-.133.121-.254.217-.358s.208-.188.338-.246c.125-.058.262-.092.404-.1a1.15 1.15 0 0 1 .412.063c.133.05.25.121.358.217.104.096.183.208.246.338.058.129.092.262.1.404zM27.137 12.642c.004.142-.017.279-.067.412a1.024 1.024 0 0 1-.549.604.989.989 0 0 1-.408.1c-.142.008-.279-.012-.413-.063a1.073 1.073 0 0 1-.6-.555.967.967 0 0 1-.1-.404c-.008-.142.012-.279.063-.412s.121-.254.217-.358c.096-.104.208-.188.337-.246s.262-.092.404-.1c.142-.004.279.017.413.063.133.05.254.121.358.217s.188.208.246.338c.058.129.092.262.1.404zM6.808 12.108a.998.998 0 0 1-.063.412c-.046.133-.121.254-.217.358s-.208.188-.338.246a1.112 1.112 0 0 1-.404.1 1.15 1.15 0 0 1-.412-.063 1.067 1.067 0 0 1-.354-.217 1.04 1.04 0 0 1-.25-.338 1.127 1.127 0 0 1-.1-.404 1.071 1.071 0 0 1 .067-.412 1.064 1.064 0 0 1 1.724-.424 1.045 1.045 0 0 1 .346.742zM6.313 15.192l.267-.221m-.267.221c-1.942-.65-3.646-.121-3.571.683s.8 1.337 1.338 1.071c.533-.267 1.375-1.171 2.233-1.754zm2.579 1.187c.008.004 1.875 1.604 2.142 2.404.267.804 0 2.675-.267 2.675s-2.142-2.404-2.408-2.404c-.267 0 0 2.137 0 2.404s-.533 0-.533 0c-1.933-1.379-1.875-3.742-1.875-3.742m2.941-1.337 1.338 1.337m-1.338-1.337-2.313-1.408m9.267-1.408c1.338.596 2.517 1.8 3.171 3.521m-3.171-3.521c-1.079.946-1.858 1.863-2.404 3.479-.442 2.413-.65 3.413.8 4.683.908.217.787-1.846.804-2.671.017-.829.596-1.508 1.071-1.337.775-.262 1.183 2.183 1.333 3.208.154 1.025 1.121 1.846 1.613-.029m-3.217-7.333c1.633-.321 2.313-.688 3.746-.662 2.446.175 3.454.692 4.988 1.983l.529.292m-9.263-1.613c-1.325-.588-6.058-.921-9.267 1.408m12.479 2.208c-.017-.029-.029-.063-.042-.096m.042 3.842s.267-1.071.267-1.871c0-.804-.308-1.971-.308-1.971m6.187-1.854c.271.267 1.604 1.704 1.604 1.704s.992 1.167 1.796.633c.8-.538.417-1.613.079-1.854-.342-.246-1.071-.537-1.871-.537-.633.033-.733-.083-1.704 0m.096.054c-1.342.767-2.708 1.717-3.475 3.021-.696 1.65-1.146 2.871-.267 3.208.883.337.629-.721 1.875-1.871 0 0 .533-.804.8-.533.267.267.258.825.15 1.188m.917-5.013-.096-.054m-.775 4.946c-.283.725-.729 1.604.071 1.604.804 0 1.308-2.025 1.337-3.208"/>
</symbol>

<symbol id="icon-quotation-mark" viewBox="0 0 32 32">
    <path fill="#2c578f" style="fill:var(--color4, #2c578f)" d="M9.683 14.013a5.649 5.649 0 0 0-3.071.904c.008-.054 0-.108.013-.254.013-.142.033-.25.058-.367.033-.171.063-.296.083-.367.167-.621.408-1.167.408-1.167.083-.192.237-.512.45-.858.346-.567.7-.946 1.196-1.446 1.033-1.054 1.808-1.987 3.204-2.954.171-.121.321-.267.496-.379 0 0 .417-.279.517-.508.033-.063.029-.125.029-.125a.332.332 0 0 0-.042-.142c-.05-.104-.1-.175-.125-.213-.075-.104-.079-.092-.154-.196-.1-.133-.117-.175-.183-.225 0 0-.067-.046-.142-.071-.225-.071-.588.292-.858.533-.246.221-.525.404-.788.608-.504.396-.529.383-1.054.787-.233.175-1.033.792-1.954 1.629-.129.117-.25.225-.408.379-.146.138-.554.542-1.054 1.125-.142.163-.588.692-1 1.279-.471.671-1.329 1.896-1.829 3.7a10.076 10.076 0 0 0-.379 2.688c0 .533.046.967.083 1.237.1.717.221 1.621.746 2.604.658 1.229 1.663 2.042 2.433 2.446a7.039 7.039 0 0 0 1.125.45c.092.025.513.146 1.083.208.475.058.846.05 1 .046H9.683a5.677 5.677 0 0 0 5.675-5.675 5.673 5.673 0 0 0-5.675-5.675v-.004zM23.229 14.029a5.629 5.629 0 0 0-3.075.904c.008-.054 0-.108.012-.258.017-.142.033-.246.058-.367.033-.167.067-.296.083-.363.167-.625.408-1.167.408-1.167.083-.192.238-.512.45-.858.346-.567.704-.95 1.196-1.45 1.033-1.054 1.808-1.988 3.208-2.954.167-.117.317-.263.492-.379 0 0 .417-.279.521-.504.029-.067.025-.129.025-.129a.292.292 0 0 0-.042-.138c-.05-.104-.1-.179-.125-.213-.075-.104-.075-.092-.154-.2-.1-.133-.113-.171-.183-.221 0 0-.062-.05-.142-.071-.225-.071-.588.292-.858.533-.246.221-.525.4-.788.604-.504.396-.525.383-1.054.787-.229.175-1.033.796-1.954 1.629-.129.117-.25.225-.408.383-.146.138-.554.538-1.054 1.125-.142.162-.588.688-1 1.279-.471.671-1.325 1.896-1.829 3.696a10.08 10.08 0 0 0-.379 2.688c0 .533.05.967.083 1.238.1.721.221 1.621.746 2.604.663 1.229 1.663 2.042 2.433 2.446a6.634 6.634 0 0 0 1.125.45c.092.025.513.146 1.083.212.479.054.85.046 1 .042H23.224c3.138 0 5.675-2.542 5.675-5.675s-2.538-5.675-5.675-5.675h.004z"/>
</symbol>

<symbol id="icon-review-icon" viewBox="0 0 32 32">
    <path fill="#fd5" style="fill:var(--color5, #fd5);stroke:var(--color4, #2c578f)" stroke="#2c578f" stroke-width=".914" d="M21.095 1.048c.959.032 1.621.221 2.079.543.44.309.746.781.924 1.498l.068.322.001.002c.252 1.385.167 2.731-.416 4.012l-.123.255c-.548 1.07-.989 2.223-1.633 3.682l-.249.565.612.073c1.056.127 1.904.275 2.709.338l.344.022c.58.026 1.162.008 1.72-.005.423-.01.835-.018 1.242-.006l.404.019c1.285.087 1.969.506 2.242 1.029.259.497.24 1.26-.281 2.307l-.113.215c-.126.233-.238.521-.379.835l-.122.271.197.222c.609.684.941 1.335.983 1.956.039.566-.158 1.181-.75 1.854l-.124.136c-.212.218-.316.536-.359.797-.039.237-.041.517.031.764l.036.104c.252.65.284 1.16.155 1.59-.113.379-.366.746-.804 1.117l-.204.162c-.278.214-.49.533-.634.849-.146.319-.242.68-.258 1.012-.033.668-.242 1.108-.538 1.395-.263.255-.634.426-1.119.5l-.215.026c-2.327.208-4.623.421-6.898.314h.001c-.906-.044-1.812-.207-2.741-.404-.688-.145-1.399-.311-2.113-.451l-.715-.129c-.514-.089-.877-.258-1.147-.501-.238-.214-.431-.509-.581-.925l-.062-.186v-.001l-.195-.666c-.858-3.115-1.042-6.307-.963-9.547l.021-.695v-.006c.005-.254.115-.565.27-.787l.069-.089c1.008-1.174 2.031-2.334 3.055-3.496.512-.581 1.024-1.163 1.534-1.746l1.524-1.761c1.777-2.093 3.126-4.45 3.515-7.386zM7.614 15.809l1.748 13.615c-.939.307-1.972.659-3.035.969l-.52.147c-.544.151-.963.239-1.296.263-.329.024-.545-.018-.704-.097-.282-.141-.529-.471-.811-1.26l-.123-.367c-.501-1.583-.972-3.169-1.289-4.771l-.126-.688c-.287-1.685-.43-3.406-.489-5.131l-.021-.739c-.016-.852.13-1.265.358-1.494.236-.236.669-.39 1.533-.427l-.001-.001c1.631-.061 3.258-.025 4.775-.019z"/>
</symbol>

<symbol id="icon-smartphone" viewBox="0 0 20 32">
    <path d="M17 0H3C1.346 0 0 1.346 0 3v26c0 1.654 1.346 3 3 3h14c1.654 0 3-1.346 3-3V3c0-1.654-1.346-3-3-3zM3 2h14a1 1 0 0 1 1 1v21H2V3a1 1 0 0 1 1-1zm14 28H3a1 1 0 0 1-1-1v-3h16v3a1 1 0 0 1-1 1z"/>
    <path d="M4.708 27.478a.889.889 0 0 1 .001 1.319l-.001.001a1.048 1.048 0 0 1-1.417 0l.001.001a.889.889 0 0 1-.001-1.319l.001-.001a1.048 1.048 0 0 1 1.417 0l-.001-.001z"/>
</symbol>

<symbol id="icon-youtube" viewBox="0 0 32 32">
    <path d="M7.408 6c-2.342 0-4.254 1.888-4.254 4.196v10.192c0 2.308 1.912 4.192 4.254 4.192h17.025c2.342 0 4.258-1.883 4.258-4.192V10.196C28.691 7.888 26.774 6 24.433 6H7.408zm0 1.8h17.025c1.367 0 2.433 1.054 2.433 2.396v10.192c0 1.342-1.067 2.396-2.433 2.396H7.408c-1.362 0-2.429-1.054-2.429-2.396V10.196c0-1.342 1.067-2.396 2.429-2.396zm6.417 2.696a.888.888 0 0 0-.667.254.862.862 0 0 0-.275.646v7.792a.844.844 0 0 0 .233.604.89.89 0 0 0 .583.296.946.946 0 0 0 .533-.104l7.296-3.896c.317-.171.479-.433.479-.792s-.162-.621-.479-.792l-7.296-3.896a.907.907 0 0 0-.408-.113zm.883 2.416 4.463 2.379-4.463 2.387v-4.767z"/>
</symbol
><symbol id="icon-viber" viewBox="0 0 32 32">
    <path d="M17.704 23.671c.75.05 2.392-1.458 2.117-2.688-.183-.846-1.2-1.958-2.246-2.092-1.046-.137-2.208 1.421-2.208 1.421-.271.204-.479.35-.617.317-2.625-.663-3.833-4.775-3.658-5.471.079-.313 3.367-1.329 3.1-3.442-.133-1.075-2.133-2.321-2.633-2.138-6.587 5.779 2.333 14.588 5.996 14.146l.15-.054z"/>
    <path d="M11.708 9.563a.408.408 0 0 0-.15.017l-.004.004v.067l.017.208c0 .008 0 .012.004.021l.029.208c0 .004.004.013.004.021l.046.2c0 .008.004.017.004.021l.062.2.008.021.075.196c.004.004.004.012.008.017l.092.192c0 .004.004.013.008.017l.104.183a.067.067 0 0 1 .013.017l.117.171a.059.059 0 0 0 .013.017l.129.167a.067.067 0 0 1 .013.017l.142.154a.059.059 0 0 1 .017.013l.154.146.013.013.167.129a.05.05 0 0 0 .017.012l.171.121c.004.004.013.008.017.013l.158.092c.004.004.008.004.012.008l.167.083c.004.004.008.004.017.008l.167.071c.004.004.013.004.017.008l.175.062c.004 0 .008.004.017.004l.175.05c.004.004.013.004.017.004l.179.042h.004c.062-.171.1-.354.108-.546l-.162-.037-.158-.042-.158-.058-.15-.062-.146-.079-.142-.083-.158-.108-.146-.117-.137-.129-.129-.142-.117-.146-.108-.158-.092-.162-.083-.171-.067-.175-.058-.179-.042-.188-.029-.183-.008-.142a1.435 1.435 0 0 0-.408-.104zM17.5 18.883c-.067-.004-.133 0-.2.008l-.008.079v.021l-.004.154v.021l.008.154c0 .004.004.012.004.021l.021.15c0 .008.004.013.004.021l.033.146c.004.008.004.017.008.021l.046.146.008.021.058.142a.033.033 0 0 1 .008.017l.075.137c0 .004.004.013.008.017l.083.129.013.017.092.121a.062.062 0 0 0 .012.017l.104.112.017.017.113.104a.067.067 0 0 0 .017.013l.121.096a.05.05 0 0 0 .017.012l.129.083c.004.004.008.004.017.008l.133.075c.008 0 .013.004.021.008l.142.058a.03.03 0 0 0 .017.008l.137.046c.004.004.012.004.017.008l.142.033.017.004.142.025h.021l.142.017H19.418l.142-.008c.008 0 .013 0 .021-.004l.142-.017c.008-.004.012-.004.021-.004l.104-.025c-.008-.042-.013-.087-.025-.129a1.776 1.776 0 0 0-.117-.35l-.067.017-.121.017-.125.008-.121-.004-.125-.008-.121-.021-.121-.033-.117-.038-.121-.054-.117-.063-.108-.071-.104-.083-.096-.087-.092-.1-.079-.104-.071-.108-.063-.117-.05-.121-.042-.125-.029-.129-.021-.129-.008-.133.004-.129.008-.083a1.483 1.483 0 0 0-.225-.042c-.025-.004-.05-.008-.075-.008z"/>
    <path d="m27.55 16.058-.096 1.425-.012.087c-.483 3.033-2.558 8.646-9 10.083a.861.861 0 0 1-.308.021c-9.425-.792-11.083-.892-11.075-.892l.063-1.004-.058 1.004c-.558-.033-.9-.05-.896-.05a1.017 1.017 0 0 1-.792-.45.99.99 0 0 1-.108-.896l1.592-4.417.513 1.246c-3.013-1.446-2.958-6.35-2.954-6.217v-.029c.058-3.225 1.208-5.95 3.388-8.117 2.167-2.158 4.908-3.371 8.179-3.371s6.013 1.213 8.179 3.371c2.183 2.171 3.308 4.896 3.387 8.108a1.004 1.004 0 0 1-.987 1.033 1.01 1.01 0 0 1-1.038-.979c-.071-2.737-1.004-4.958-2.796-6.737-1.8-1.796-4.033-2.783-6.746-2.783s-4.946.987-6.746 2.783c-1.796 1.783-2.746 4.004-2.796 6.729v-.021.004-.008c0 .321.154 3.621 1.808 4.421.467.221.692.762.517 1.246l-1.596 4.417-.9-1.346c.004 0 .35.017.912.05.017.004 1.7.104 11.125.896l-.308.021c5.233-1.167 7.008-5.721 7.442-8.429l-.013.087.1-1.425a1.012 1.012 0 0 1 2.021.137z"/>
    <path d="m17.092 15.658-.013.142a1.042 1.042 0 0 1-.404.696 1.062 1.062 0 0 1-1.629-.425L15 15.942a1.083 1.083 0 0 1-.037-.283c.004-.3.108-.55.308-.75.204-.2.454-.3.754-.308.3.008.554.108.754.308s.304.45.313.75z"/>
    <path d="m16.433 12.779.158.042c.013.004.021.004.033.008l.154.054c.008 0 .021.004.029.008l.15.063.033.013.146.071c.008.004.021.008.029.017l.142.079a.06.06 0 0 1 .029.017l.137.088c.008.004.017.013.025.017l.133.096.025.021.129.104.021.021.121.113.021.021.112.121.025.025.104.125a.116.116 0 0 0 .021.025l.108.15c.004.013.013.021.021.029l.096.158c.008.008.013.021.017.029l.087.162c.004.013.013.025.017.033l.075.171.013.033.062.171a.402.402 0 0 0 .013.037l.05.175c.004.013.008.025.008.038l.042.179c0 .013.004.021.004.033l.025.183a.12.12 0 0 1 .004.037l.013.183v.254l-.013.183c0 .012 0 .025-.004.038l-.025.183c-.042.287-.308.488-.596.446s-.492-.304-.45-.592l.025-.183-.004.038.013-.183v.033-.146l-.013-.183.004.037-.025-.183.008.037-.042-.179.013.033-.054-.175.013.033-.063-.171.013.033-.075-.167.017.029-.087-.163.021.033-.1-.154.021.029-.108-.15.021.029-.104-.125.025.021-.112-.117.021.021-.117-.108.021.021-.1-.083-.129-.1.025.021-.137-.088.029.017-.146-.079.029.012-.146-.071.029.017-.15-.063.029.013-.154-.054.029.008-.158-.042a.525.525 0 1 1 .275-1.013z"/>
    <path d="m16.812 10.846.288.088c.013.004.021.008.033.013l.283.104c.008 0 .021.008.029.013l.275.121a.113.113 0 0 1 .029.013l.271.142c.008.004.017.008.029.017l.258.154c.008.004.017.013.025.017l.25.175c.008.004.017.013.025.017l.238.187c.008.008.017.017.025.021l.225.204.025.021.208.217.025.025.196.229c.008.008.012.017.021.025l.179.242c.008.008.017.017.021.025l.171.258a.437.437 0 0 0 .017.029l.154.267c.004.013.008.021.013.033l.137.275.012.033.117.283.012.033.096.292.013.033.075.296c.004.013.008.025.008.033l.058.304a.096.096 0 0 1 .004.033l.042.304v.037l.021.304v.037l-.004.308v.033l-.021.308c0 .008-.004.021-.004.033l-.042.304a.533.533 0 0 1-.596.45.526.526 0 0 1-.45-.592l.042-.308-.004.038.021-.308v.033-.308l.004.033-.021-.304.004.033-.038-.308.004.033-.058-.3.008.033-.079-.3.013.033-.1-.292.013.033-.117-.287.017.033-.137-.279.017.029-.15-.267.017.029-.171-.258.021.029-.183-.242.021.029-.196-.229.025.025-.213-.217.025.025-.225-.204.025.025-.233-.188.025.017-.246-.171.025.021-.258-.158.029.017-.267-.137.029.013-.275-.121.033.013-.283-.104.029.012-.287-.088a.527.527 0 1 1 .304-1.008z"/>
    <path d="m17.508 8.883.383.108a.079.079 0 0 0 .029.008l.375.133a.17.17 0 0 1 .029.012l.367.154c.013.004.021.012.029.017l.358.175a.07.07 0 0 0 .029.017l.342.2a.437.437 0 0 1 .029.017l.329.221.025.021.317.238c.008.008.017.017.025.021l.3.262a.116.116 0 0 1 .025.021l.283.279c.008.008.017.017.025.021l.262.296c.008.008.017.017.021.025l.246.313c.008.008.017.017.021.025l.225.325c.008.008.013.021.021.029l.212.35c.004.013.013.021.017.029l.188.367c.008.008.013.021.017.029l.167.375c.004.013.008.021.013.033l.137.383c.004.012.008.025.013.033l.112.396.013.033.087.4c.004.008.004.021.008.033l.063.404c0 .013 0 .021.004.033l.038.408v.033l.008.412v.033l-.017.408v.033l-.046.408c0 .013 0 .025-.004.033l-.067.404a.53.53 0 0 1-.612.429.52.52 0 0 1-.429-.604l.071-.404-.008.033.046-.408-.004.033.017-.408v.033l-.008-.413v.037l-.038-.408.004.033-.063-.408.008.033-.092-.4.008.033-.104-.363-.142-.383.013.029-.163-.375.013.033-.188-.367.017.029-.212-.35.017.029-.225-.325.017.025-.246-.313.021.025-.262-.292.021.021-.283-.275.025.021-.3-.258.025.021-.317-.242.029.021-.333-.221.029.017-.342-.2.029.017-.358-.179.033.012-.338-.142-.375-.133.033.008-.383-.108c-.279-.079-.442-.371-.363-.65s.375-.438.654-.358z"/>
</symbol>

<symbol id="icon-facebook" viewBox="0 0 32 32">
<path d="M21.328 5.312h2.923V.224A36.478 36.478 0 0 0 20.144 0h-.157.008c-4.213 0-7.099 2.65-7.099 7.52V12H8.25v5.688h4.646V32h5.699V17.69h4.459l.709-5.688h-5.17V8.08c0-1.643.443-2.768 2.734-2.768z"/>
</symbol>


<symbol id="icon-menu" viewBox="0 0 32 32">
    <path d="M6.4 11.733V9.6h19.2v2.133H6.4zm0 5.334h19.2v-2.133H6.4v2.133zm0 5.333h19.2v-2.133H6.4V22.4z"/>
</symbol>

<symbol id="icon-checkbox" viewBox="0 0 34 32">
    <path fill="#fff" style="fill:var(--color3, #fff);stroke:var(--color3, #fff)" stroke="#fff" stroke-width=".427" d="m8.442 16.537-.147-.14-2.205 2.088 7.767 7.41 16.318-15.567-2.19-2.089-14.128 13.465-5.416-5.167z"/>
</symbol>

<symbol id="icon-close" viewBox="0 0 32 32">
    <path d="m26.667 7.303-1.97-1.97-7.808 7.808-7.808-7.808-1.97 1.97 7.808 7.808-7.808 7.808 1.97 1.97 7.808-7.808 7.808 7.808 1.97-1.97-7.808-7.808 7.808-7.808z"/>
</symbol>

<symbol id="icon-email" viewBox="0 0 32 32">
    <path d="M26.667 5.333H5.334A2.663 2.663 0 0 0 2.681 8l-.013 16c0 1.467 1.2 2.667 2.667 2.667h21.333c1.467 0 2.667-1.2 2.667-2.667V8c0-1.467-1.2-2.667-2.667-2.667zM26.133 11l-9.427 5.893a1.346 1.346 0 0 1-1.413 0L5.866 11a1.132 1.132 0 1 1 1.2-1.92l8.933 5.587 8.933-5.587a1.132 1.132 0 1 1 1.2 1.92z"/>
</symbol>

<symbol id="icon-person" viewBox="0 0 32 32">
    <path d="M16 16c2.947 0 5.333-2.387 5.333-5.333S18.946 5.334 16 5.334c-2.947 0-5.333 2.387-5.333 5.333S13.054 16 16 16zm0 2.667c-3.56 0-10.667 1.787-10.667 5.333v1.333c0 .733.6 1.333 1.333 1.333h18.667c.733 0 1.333-.6 1.333-1.333V24c0-3.547-7.107-5.333-10.667-5.333z"/>
</symbol>

<symbol id="icon-arrow" viewBox="0 0 32 32">
    <path d="M16 22.4c-.933 0-1.867-.36-2.573-1.067L4.734 12.64c-.387-.387-.387-1.027 0-1.413s1.027-.387 1.413 0l8.693 8.693c.64.64 1.68.64 2.32 0l8.693-8.693c.387-.387 1.027-.387 1.413 0s.387 1.027 0 1.413l-8.693 8.693A3.634 3.634 0 0 1 16 22.4z"/>
</symbol>

<symbol id="icon-tel" viewBox="0 0 32 32">
<path d="m24.882 19.773-3.268-.373a2.561 2.561 0 0 0-2.11.733L17.137 22.5a19.357 19.357 0 0 1-8.478-8.478l2.38-2.38a2.561 2.561 0 0 0 .733-2.11l-.373-3.242a2.575 2.575 0 0 0-2.56-2.277H6.613c-1.454 0-2.663 1.209-2.573 2.663.682 10.987 9.469 19.761 20.443 20.443 1.454.09 2.663-1.119 2.663-2.573V22.32a2.549 2.549 0 0 0-2.264-2.547z"/>
</symbol>

</defs></svg>