<svg width="60" height="60" viewBox="0 0 60 60" fill="none" xmlns="http://www.w3.org/2000/svg">
<mask id="mask0_83_1738" style="mask-type:luminance" maskUnits="userSpaceOnUse" x="32" y="14" width="28" height="45">
<path d="M32 14H59.0312V58.0625H32V14Z" fill="white"/>
</mask>
<g mask="url(#mask0_83_1738)">
<path d="M55.1171 14.1016C53.3827 14.3047 52.5702 15.6719 52.6015 17.4531C52.703 22.2188 52.0546 27.6484 49.4452 31.5703C48.4218 33.1016 47.1874 34.1172 45.703 35.3438L47.7265 31.4766C48.3593 30.2578 47.8827 28.7578 46.6718 28.125C45.453 27.4922 43.953 27.9609 43.3202 29.1797L37.2187 40.8828C31.539 48.7344 35.0859 58.0234 35.0859 58.0234L43.8437 58.0625C43.8905 53.5781 46.6484 49.7578 46.6484 49.7578C58.9843 35.2578 58.078 21.1953 57.9999 17.5938C57.953 15.4922 56.8515 13.9063 55.1171 14.1016Z" fill="#FFDE59"/>
</g>
<mask id="mask1_83_1738" style="mask-type:luminance" maskUnits="userSpaceOnUse" x="0" y="14" width="28" height="45">
<path d="M0.96875 14H28V58.0625H0.96875V14Z" fill="white"/>
</mask>
<g mask="url(#mask1_83_1738)">
<path d="M4.88274 14.1016C6.61711 14.3047 7.42961 15.6719 7.39836 17.4531C7.2968 22.2188 7.94524 27.6484 10.5546 31.5703C11.578 33.1016 12.8124 34.1172 14.2968 35.3438L12.2734 31.4766C11.6405 30.2578 12.1093 28.7578 13.328 28.125C14.5468 27.4922 16.0468 27.9609 16.6796 29.1797L22.7812 40.8828C28.4609 48.7344 24.9218 58.0234 24.9218 58.0234L16.1562 58.0625C16.1093 53.5781 13.3515 49.7578 13.3515 49.7578C1.01555 35.2578 1.9218 21.1953 1.99992 17.5938C2.0468 15.4922 3.15617 13.9063 4.88274 14.1016Z" fill="#FFDE59"/>
</g>
<mask id="mask2_83_1738" style="mask-type:luminance" maskUnits="userSpaceOnUse" x="16" y="10" width="26" height="24">
<path d="M16 10.7656H42V34H16V10.7656Z" fill="white"/>
</mask>
<g mask="url(#mask2_83_1738)">
<path d="M41.9531 17.7188C41.9531 13.875 38.8437 10.7656 35 10.7656C32.7031 10.7656 30.6641 11.8828 29.3984 13.6016C28.1328 11.8828 26.0938 10.7656 23.7969 10.7656C19.9531 10.7656 16.8438 13.875 16.8438 17.7188C16.8438 19.5703 17.5703 21.2578 18.7578 22.5078L29.0781 32.9687L40.4922 21.9766C41.4062 20.7969 41.9531 19.3203 41.9531 17.7188Z" fill="#004AAD"/>
</g>
</svg>
