<svg width="24" height="24" viewBox="0 0 24 24" fill="none" xmlns="http://www.w3.org/2000/svg">
<g clip-path="url(#clip0_203_1784)">
<path d="M23.3416 7.31811C23.2884 6.11052 23.0931 5.28032 22.8133 4.56093C22.5248 3.79732 22.0808 3.11367 21.4991 2.54534C20.9308 1.96817 20.2426 1.51968 19.4878 1.2356C18.7643 0.95586 17.9384 0.760579 16.7308 0.707336C15.5142 0.649585 15.128 0.63623 12.0424 0.63623C8.95671 0.63623 8.57048 0.649585 7.35839 0.702827C6.1508 0.75607 5.3206 0.951525 4.60139 1.23109C3.8376 1.51968 3.15395 1.96366 2.58562 2.54534C2.00845 3.11367 1.56013 3.80183 1.27588 4.5566C0.996143 5.28032 0.800862 6.10601 0.74762 7.3136C0.689868 8.53021 0.676514 8.91643 0.676514 12.0021C0.676514 15.0877 0.689868 15.474 0.74311 16.6861C0.796353 17.8937 0.991808 18.7239 1.27155 19.4432C1.56013 20.2068 2.00845 20.8905 2.58562 21.4588C3.15395 22.036 3.84211 22.4845 4.59688 22.7686C5.3206 23.0483 6.14629 23.2436 7.35405 23.2968C8.56597 23.3503 8.95237 23.3634 12.038 23.3634C15.1237 23.3634 15.5099 23.3503 16.722 23.2968C17.9296 23.2436 18.7598 23.0483 19.479 22.7686C21.0064 22.178 22.214 20.9705 22.8045 19.4432C23.0841 18.7195 23.2795 17.8937 23.3328 16.6861C23.386 15.474 23.3994 15.0877 23.3994 12.0021C23.3994 8.91643 23.3949 8.53021 23.3416 7.31811ZM21.295 16.5973C21.2461 17.7072 21.0596 18.3066 20.9042 18.7062C20.5223 19.6963 19.7365 20.4821 18.7464 20.864C18.3469 21.0194 17.7431 21.2058 16.6375 21.2545C15.4388 21.308 15.0793 21.3211 12.0469 21.3211C9.01446 21.3211 8.65043 21.308 7.45603 21.2545C6.34608 21.2058 5.74671 21.0194 5.34713 20.864C4.85442 20.6819 4.40593 20.3933 4.0419 20.0159C3.66452 19.6474 3.37594 19.2034 3.19384 18.7107C3.03844 18.3111 2.85201 17.7072 2.80327 16.6018C2.74986 15.403 2.73668 15.0433 2.73668 12.0109C2.73668 8.97852 2.74986 8.61449 2.80327 7.42026C2.85201 6.31031 3.03844 5.71094 3.19384 5.31136C3.37594 4.81848 3.66452 4.37016 4.04641 4.00596C4.41478 3.62858 4.85876 3.33999 5.35164 3.15806C5.75122 3.00267 6.3551 2.81624 7.46054 2.76733C8.65928 2.71409 9.01897 2.70073 12.0512 2.70073C15.0881 2.70073 15.4476 2.71409 16.642 2.76733C17.752 2.81624 18.3514 3.00267 18.7509 3.15806C19.2437 3.33999 19.6921 3.62858 20.0562 4.00596C20.4335 4.3745 20.7221 4.81848 20.9042 5.31136C21.0596 5.71094 21.2461 6.31465 21.295 7.42026C21.3482 8.619 21.3616 8.97852 21.3616 12.0109C21.3616 15.0433 21.3482 15.3985 21.295 16.5973Z" fill="white"/>
<path d="M12.0422 6.16357C8.819 6.16357 6.20386 8.77854 6.20386 12.0019C6.20386 15.2252 8.819 17.8402 12.0422 17.8402C15.2655 17.8402 17.8805 15.2252 17.8805 12.0019C17.8805 8.77854 15.2655 6.16357 12.0422 6.16357ZM12.0422 15.7891C9.95114 15.7891 8.255 14.0931 8.255 12.0019C8.255 9.91069 9.95114 8.21472 12.0422 8.21472C14.1334 8.21472 15.8294 9.91069 15.8294 12.0019C15.8294 14.0931 14.1334 15.7891 12.0422 15.7891Z" fill="white"/>
<path d="M19.4747 5.93281C19.4747 6.68549 18.8644 7.29579 18.1115 7.29579C17.3588 7.29579 16.7485 6.68549 16.7485 5.93281C16.7485 5.17995 17.3588 4.56982 18.1115 4.56982C18.8644 4.56982 19.4747 5.17995 19.4747 5.93281Z" fill="white"/>
</g>
<defs>
<clipPath id="clip0_203_1784">
<rect width="22.7273" height="22.7273" fill="white" transform="translate(0.636475 0.63623)"/>
</clipPath>
</defs>
</svg>
