<svg width="55" height="55" viewBox="0 0 55 55" fill="none" xmlns="http://www.w3.org/2000/svg">
<circle cx="27.5" cy="27.5" r="27.5" fill="#2C578F"/>
<circle cx="27.6114" cy="19.6071" r="2" transform="rotate(-2.50729 27.6114 19.6071)" stroke="white"/>
<circle cx="46.6114" cy="22.5673" r="2" transform="rotate(-2.50729 46.6114 22.5673)" stroke="white"/>
<circle cx="8.61137" cy="21.5673" r="2" transform="rotate(-2.50729 8.61137 21.5673)" stroke="white"/>
<path d="M9.68205 27.2456C9.68205 27.2456 10.1196 26.8743 10.1779 26.832M9.68205 27.2456C6.05059 26.0277 2.85961 27.0197 2.99996 28.5232C3.14031 30.0266 4.49988 31.0231 5.49996 30.5231C6.50004 30.0232 8.07249 28.3331 9.68205 27.2456ZM14.504 29.4604C14.515 29.4698 18.0048 32.4628 18.504 33.9604C19.004 35.4604 18.504 38.9604 18.004 38.9604C17.504 38.9604 14.004 34.4604 13.504 34.4604C13.004 34.4604 13.504 38.4604 13.504 38.9604C13.504 39.4604 12.504 38.9604 12.504 38.9604C8.8879 36.3772 9.00401 31.9604 9.00401 31.9604M14.504 29.4604L17.004 31.9604M14.504 29.4604L10.1779 26.832M27.504 24.1996C30.004 25.3108 32.2084 27.5596 33.4268 30.783M27.504 24.1996C25.4858 25.9655 24.0284 27.6813 23.004 30.6997C22.1793 35.2111 21.7894 37.0782 24.504 39.4604C26.2015 39.8636 25.9726 36.0042 26.004 34.4604C26.0354 32.9166 27.1231 31.6427 28.004 31.9604C29.4546 31.47 30.2215 36.0445 30.504 37.9604C30.7865 39.8763 32.5934 41.4108 33.5161 37.9108M27.504 24.1996C30.5518 23.596 31.8208 22.9104 34.504 22.9603C39.0801 23.2845 40.961 24.2505 43.8266 26.668L44.818 27.2141M27.504 24.1996C25.028 23.0991 16.1764 22.4725 10.1779 26.832M33.504 30.9604C33.4786 30.901 33.4528 30.8419 33.4268 30.783M33.504 37.9604C33.504 37.9604 34.004 35.9604 34.004 34.4604C34.004 32.9604 33.4268 30.783 33.4268 30.783M44.9997 27.3142C45.4997 27.8142 47.9997 30.5001 47.9997 30.5001C47.9997 30.5001 49.8493 32.6818 51.3493 31.6819C52.8493 30.6819 52.1351 28.6671 51.4999 28.2141C50.8647 27.7611 49.4999 27.2141 47.9999 27.2141C46.8163 27.2729 46.6321 27.0558 44.818 27.2141M44.9997 27.3142C42.4863 28.7479 39.9313 30.5245 38.504 32.9604C37.198 36.0429 36.3564 38.3298 38.004 38.9604C39.6516 39.591 39.179 37.6128 41.504 35.4604C41.504 35.4604 42.504 33.9604 43.004 34.4604C43.504 34.9604 43.4883 36.0057 43.2824 36.6822M44.9997 27.3142L44.818 27.2141M43.3666 36.4604C42.8384 37.8156 42.004 39.4604 43.504 39.4604C45.004 39.4604 45.9504 35.6706 46.004 33.4604" stroke="white"/>
</svg>
