<svg width="35" height="35" viewBox="0 0 35 35" fill="none" xmlns="http://www.w3.org/2000/svg">
<path d="M19.3639 25.8901C20.1842 25.9447 21.9798 24.295 21.679 22.9506C21.4785 22.0255 20.3665 20.8087 19.2226 20.6628C18.0788 20.5125 16.8073 22.2169 16.8073 22.2169C16.5111 22.4402 16.2832 22.5997 16.1328 22.5632C13.2617 21.8386 11.9401 17.3406 12.1315 16.5795C12.2181 16.2377 15.8138 15.1257 15.5221 12.8152C15.3763 11.6394 13.1888 10.2768 12.6419 10.4773C5.43684 16.7983 15.194 26.4324 19.1999 25.9493L19.3639 25.8901Z" fill="white"/>
<path d="M12.8061 10.4592C12.7423 10.4546 12.6876 10.4638 12.642 10.4774C12.6375 10.482 12.6375 10.482 12.6375 10.482V10.5321C12.6375 10.5412 12.6375 10.5458 12.6375 10.5549L12.6557 10.7828C12.6557 10.7919 12.6557 10.7964 12.6602 10.8055L12.6921 11.0334C12.6921 11.038 12.6967 11.0471 12.6967 11.0562L12.7468 11.2749C12.7468 11.2841 12.7514 11.2932 12.7514 11.2977L12.8197 11.5165C12.8243 11.5256 12.8243 11.5302 12.8289 11.5393L12.9109 11.7535C12.9154 11.758 12.9154 11.7671 12.92 11.7717L13.0203 11.9813C13.0203 11.9859 13.0248 11.995 13.0294 11.9996L13.1433 12.2001C13.1479 12.2046 13.1524 12.2092 13.157 12.2183L13.2846 12.4052C13.2891 12.4143 13.2937 12.4188 13.2983 12.4234L13.4395 12.6057C13.4441 12.6102 13.4486 12.6148 13.4532 12.6239L13.6082 12.7925C13.6173 12.7971 13.6218 12.8016 13.6264 12.8062L13.795 12.9657C13.7996 12.9703 13.8041 12.9748 13.8087 12.9794L13.991 13.1207C13.9955 13.1252 14.0001 13.1298 14.0092 13.1343L14.196 13.2665C14.2006 13.271 14.2097 13.2756 14.2143 13.2802L14.3875 13.3804C14.392 13.385 14.3966 13.385 14.4011 13.3895L14.5834 13.4807C14.588 13.4852 14.5925 13.4852 14.6016 13.4898L14.7839 13.5673C14.7885 13.5718 14.7976 13.5718 14.8022 13.5764L14.9936 13.6447C14.9981 13.6447 15.0027 13.6493 15.0118 13.6493L15.2032 13.704C15.2078 13.7085 15.2169 13.7085 15.2214 13.7085L15.4174 13.7541C15.422 13.7541 15.422 13.7541 15.422 13.7541C15.4903 13.5673 15.5313 13.3667 15.5404 13.1571L15.3627 13.1161L15.1895 13.0705L15.0164 13.0067L14.8523 12.9384L14.6928 12.8518L14.5378 12.7606L14.3647 12.6421L14.2052 12.5145L14.0548 12.3733L13.9135 12.2183L13.7859 12.0588L13.6674 11.8856L13.5671 11.7079L13.476 11.521L13.4031 11.3296L13.3393 11.1337L13.2937 10.9286L13.2618 10.7281L13.2527 10.5731C13.0795 10.5048 12.9291 10.4683 12.8061 10.4592Z" fill="#FEFEFE"/>
<path d="M19.1406 20.6536C19.0677 20.6491 18.9948 20.6536 18.9219 20.6628L18.9128 20.7493C18.9128 20.7585 18.9128 20.7676 18.9128 20.7721L18.9082 20.9408C18.9082 20.9499 18.9082 20.9544 18.9082 20.9635L18.9173 21.1322C18.9173 21.1367 18.9219 21.1458 18.9219 21.1549L18.9447 21.319C18.9447 21.3281 18.9492 21.3327 18.9492 21.3418L18.9857 21.5013C18.9902 21.5104 18.9902 21.5195 18.9948 21.5241L19.0449 21.6836C19.0495 21.6927 19.0495 21.6973 19.054 21.7064L19.1178 21.8613C19.1224 21.8659 19.127 21.875 19.127 21.8796L19.209 22.0299C19.209 22.0345 19.2135 22.0436 19.2181 22.0482L19.3092 22.1895C19.3138 22.194 19.3184 22.2031 19.3229 22.2077L19.4232 22.3398C19.4277 22.349 19.4323 22.3535 19.4368 22.3581L19.5508 22.4811C19.5553 22.4857 19.5645 22.4948 19.569 22.4993L19.6921 22.6133C19.6966 22.6178 19.7012 22.6224 19.7103 22.627L19.8424 22.7318C19.847 22.7363 19.8516 22.7409 19.8607 22.7454L20.002 22.8366C20.0065 22.8411 20.0111 22.8411 20.0202 22.8457L20.166 22.9277C20.1751 22.9277 20.1797 22.9323 20.1888 22.9368L20.3438 23.0006C20.3483 23.0052 20.3574 23.0098 20.362 23.0098L20.5124 23.0599C20.5169 23.0645 20.526 23.0644 20.5306 23.069L20.6855 23.1055C20.6901 23.1055 20.6992 23.11 20.7038 23.11L20.8587 23.1374C20.8678 23.1374 20.8724 23.1374 20.8815 23.1374L21.0365 23.1556C21.041 23.1556 21.0456 23.1556 21.0501 23.1556C21.0501 23.1556 21.0547 23.1556 21.0592 23.1556H21.2142C21.2233 23.1556 21.2279 23.1556 21.237 23.1556L21.3919 23.1465C21.401 23.1465 21.4056 23.1465 21.4147 23.1419L21.5697 23.1237C21.5788 23.1191 21.5833 23.1191 21.5924 23.1191L21.7064 23.0918C21.6973 23.0462 21.6927 22.9961 21.679 22.9505C21.6517 22.8275 21.6107 22.6999 21.5514 22.5677L21.4785 22.5859L21.3464 22.6042L21.2096 22.6133L21.0775 22.6087L20.9408 22.5996L20.8086 22.5768L20.6764 22.5404L20.5488 22.4993L20.4167 22.4401L20.2891 22.3717L20.1706 22.2943L20.0566 22.2031L19.9518 22.1074L19.8516 21.998L19.765 21.8841L19.6875 21.7656L19.6191 21.638L19.5645 21.5059L19.5189 21.3691L19.487 21.2279L19.4642 21.0866L19.4551 20.9408L19.4596 20.7995L19.4688 20.7083C19.3867 20.6855 19.3047 20.6719 19.2227 20.6628C19.1953 20.6582 19.168 20.6536 19.1406 20.6536Z" fill="#FEFEFE"/>
<mask id="mask0_203_1794" style="mask-type:luminance" maskUnits="userSpaceOnUse" x="4" y="4" width="27" height="27">
<path d="M4.76685 4.89014H30.1692V30.2925H4.76685V4.89014Z" fill="white"/>
</mask>
<g mask="url(#mask0_203_1794)">
<path d="M30.1328 17.564L30.028 19.1226C30.0235 19.1545 30.0189 19.1864 30.0144 19.2183C29.4857 22.536 27.2162 28.6746 20.1706 30.2469C20.0612 30.2743 19.9473 30.2834 19.8334 30.2697C9.52477 29.4038 7.71097 29.2944 7.72008 29.2944L7.78844 28.1961L7.72464 29.2944C7.11396 29.258 6.74027 29.2397 6.74482 29.2397C6.39391 29.2215 6.0749 29.0392 5.87894 28.7476C5.68297 28.4604 5.64196 28.0959 5.76045 27.7677L7.50133 22.937L8.06188 24.2996C4.76696 22.7183 4.8262 17.3543 4.83076 17.5002V17.491C4.83076 17.4819 4.83076 17.4774 4.83076 17.4683C4.89456 13.9409 6.15237 10.9604 8.53584 8.59066C10.9056 6.22998 13.9043 4.90381 17.4818 4.90381C21.0593 4.90381 24.058 6.22998 26.4278 8.59066C28.8158 10.965 30.0463 13.9455 30.1328 17.4591C30.1511 18.0698 29.668 18.5757 29.0528 18.5894C28.4421 18.6076 27.9362 18.1245 27.918 17.5184C27.8405 14.5243 26.8197 12.0952 24.8601 10.1493C22.8913 8.18506 20.4486 7.10498 17.4818 7.10498C14.515 7.10498 12.0723 8.18506 10.1035 10.1493C8.13935 12.0998 7.10029 14.5288 7.0456 17.5093V17.491C7.0456 17.4865 7.0456 17.4865 7.0456 17.4865V17.491V17.4819C7.0456 17.8328 7.21422 21.4422 9.02347 22.3172C9.53388 22.5588 9.77998 23.1512 9.58857 23.6798L7.84313 28.5106L6.85875 27.0386C6.86331 27.0386 7.24157 27.0568 7.8568 27.0933C7.87503 27.0978 9.71618 27.2072 20.0248 28.0731L19.6875 28.0959C25.4115 26.8198 27.3529 21.8387 27.8269 18.8765L27.8132 18.9722L27.9226 17.4136C27.9636 16.8075 28.4922 16.3472 29.0983 16.3882C29.709 16.4292 30.1739 16.9578 30.1328 17.564Z" fill="white"/>
</g>
<path d="M18.694 17.1263L18.6803 17.2812C18.6302 17.6003 18.4844 17.8555 18.2383 18.0423C17.9922 18.2337 17.7051 18.3112 17.3678 18.2747C17.0534 18.2246 16.7982 18.0788 16.6068 17.8327C16.543 17.7552 16.4928 17.6686 16.4564 17.5775L16.4062 17.4362C16.3789 17.3359 16.3652 17.2311 16.3652 17.1263C16.3698 16.7982 16.4837 16.5247 16.7025 16.306C16.9258 16.0872 17.1992 15.9779 17.5273 15.9688C17.8555 15.9779 18.1335 16.0872 18.3522 16.306C18.571 16.5247 18.6849 16.7982 18.694 17.1263Z" fill="white"/>
<path d="M17.9738 13.9772L18.147 14.0227C18.1607 14.0273 18.1698 14.0273 18.1835 14.0319L18.3521 14.0911C18.3612 14.0911 18.3749 14.0957 18.384 14.1002L18.5481 14.1686C18.5617 14.1731 18.5708 14.1777 18.5845 14.1823L18.744 14.2597C18.7531 14.2643 18.7668 14.2688 18.7759 14.278L18.9309 14.3645C18.9445 14.3691 18.9537 14.3737 18.9628 14.3828L19.1132 14.4785C19.1223 14.483 19.1314 14.4922 19.1405 14.4967L19.2863 14.6015C19.2955 14.6106 19.3046 14.6152 19.3137 14.6243L19.455 14.7382C19.4641 14.7474 19.4686 14.7519 19.4777 14.761L19.6099 14.8841C19.619 14.8932 19.6281 14.9023 19.6327 14.9069L19.7557 15.039C19.7649 15.0481 19.774 15.0573 19.7831 15.0664L19.897 15.2031C19.9016 15.2122 19.9107 15.2213 19.9198 15.2304L20.0383 15.3945C20.0429 15.4082 20.052 15.4173 20.0611 15.4264L20.1659 15.5996C20.175 15.6087 20.1796 15.6224 20.1841 15.6315L20.2798 15.8092C20.2844 15.8229 20.2935 15.8366 20.2981 15.8457L20.3801 16.0325C20.3846 16.0416 20.3892 16.0553 20.3938 16.069L20.4621 16.2558C20.4667 16.2695 20.4712 16.2832 20.4758 16.2968L20.5305 16.4882C20.535 16.5019 20.5396 16.5156 20.5396 16.5293L20.5852 16.7252C20.5852 16.7389 20.5897 16.748 20.5897 16.7617L20.6171 16.9622C20.6216 16.9759 20.6216 16.9895 20.6216 17.0032L20.6353 17.2037C20.6353 17.2174 20.6353 17.2311 20.6353 17.2402V17.4453C20.6353 17.4544 20.6353 17.4681 20.6353 17.4817L20.6216 17.6823C20.6216 17.6959 20.6216 17.7096 20.6171 17.7233L20.5897 17.9238C20.5442 18.2382 20.2525 18.457 19.938 18.4114C19.6236 18.3658 19.4003 18.0787 19.4458 17.7643L19.4732 17.5638L19.4686 17.6048L19.4823 17.4043V17.4407V17.2402V17.2812L19.4686 17.0807L19.4732 17.1217L19.4458 16.9212L19.455 16.9622L19.4094 16.7662L19.4231 16.8027L19.3638 16.6113L19.3775 16.6477L19.3091 16.4609L19.3228 16.4974L19.2408 16.3151L19.259 16.347L19.1633 16.1692L19.1861 16.2057L19.0767 16.0371L19.0995 16.069L18.981 15.9049L19.0038 15.9368L18.8899 15.8001L18.9172 15.8229L18.7942 15.6953L18.8169 15.7181L18.6893 15.5996L18.7121 15.6224L18.5754 15.5084L18.6027 15.5312L18.4615 15.4218L18.4888 15.4446L18.3384 15.3489L18.3703 15.3672L18.2108 15.2806L18.2427 15.2942L18.0832 15.2168L18.1151 15.235L17.9511 15.1666L17.983 15.1803L17.8143 15.1211L17.8462 15.1302L17.6731 15.0846C17.3677 15.0026 17.1854 14.6881 17.2675 14.3828C17.3495 14.0774 17.6685 13.8951 17.9738 13.9772Z" fill="white"/>
<path d="M18.3886 11.8627L18.7031 11.9584C18.7168 11.9629 18.7259 11.9675 18.7395 11.9721L19.0494 12.086C19.0586 12.086 19.0722 12.0951 19.0813 12.0997L19.3821 12.2318C19.3958 12.2364 19.4049 12.2409 19.414 12.2455L19.7103 12.4004C19.7194 12.405 19.7285 12.4096 19.7422 12.4187L20.0247 12.5873C20.0338 12.5918 20.0429 12.601 20.052 12.6055L20.3255 12.7969C20.3346 12.8015 20.3437 12.8106 20.3528 12.8152L20.6126 13.0202C20.6217 13.0293 20.6308 13.0385 20.6399 13.043L20.886 13.2663C20.8951 13.2754 20.9043 13.28 20.9134 13.2891L21.1412 13.5261C21.1504 13.5352 21.1595 13.5443 21.1686 13.5534L21.3828 13.8041C21.3919 13.8132 21.3964 13.8223 21.4056 13.8314L21.6015 14.0957C21.6106 14.1049 21.6198 14.114 21.6243 14.1231L21.8112 14.4056C21.8157 14.4148 21.8248 14.4284 21.8294 14.4375L21.998 14.7292C22.0026 14.7429 22.0071 14.752 22.0117 14.7657L22.1621 15.0665C22.1666 15.0801 22.1712 15.0892 22.1757 15.1029L22.3034 15.4128C22.3079 15.4265 22.3125 15.4356 22.317 15.4493L22.4218 15.7683C22.4264 15.7819 22.431 15.7911 22.4355 15.8047L22.5175 16.1283C22.5221 16.142 22.5267 16.1556 22.5267 16.1648L22.5905 16.4974C22.595 16.5111 22.595 16.5202 22.595 16.5339L22.6406 16.8666C22.6406 16.8803 22.6406 16.8939 22.6406 16.9076L22.6634 17.2403C22.6634 17.254 22.6634 17.2676 22.6634 17.2813L22.6588 17.6185C22.6588 17.6276 22.6588 17.6413 22.6588 17.655L22.636 17.9922C22.636 18.0013 22.6315 18.015 22.6315 18.0287L22.5859 18.3614C22.5403 18.6758 22.2487 18.8946 21.9342 18.8536C21.6198 18.808 21.3964 18.5209 21.442 18.2064L21.4876 17.8692L21.483 17.9102L21.5058 17.573V17.6094V17.2722L21.5104 17.3086L21.4876 16.976L21.4922 17.0124L21.4511 16.6752L21.4557 16.7116L21.3919 16.3835L21.401 16.42L21.3144 16.0918L21.3281 16.1283L21.2187 15.8093L21.2324 15.8457L21.1048 15.5313L21.123 15.5678L20.9726 15.2624L20.9909 15.2943L20.8268 15.0027L20.845 15.0346L20.6582 14.752L20.681 14.7839L20.4804 14.5196L20.5032 14.5515L20.289 14.3008L20.3164 14.3282L20.0839 14.0912L20.1113 14.1185L19.8652 13.8952L19.8925 13.9226L19.6373 13.7175L19.6647 13.7357L19.3958 13.5489L19.4231 13.5717L19.1406 13.3985L19.1725 13.4167L18.8808 13.2663L18.9127 13.28L18.6119 13.1478L18.6484 13.1615L18.3385 13.0476L18.3704 13.0612L18.056 12.9655C17.7506 12.8744 17.5774 12.5554 17.6686 12.25C17.7597 11.9447 18.0787 11.7715 18.3886 11.8627Z" fill="white"/>
<path d="M19.1498 9.71613L19.569 9.83462C19.5781 9.83917 19.5918 9.84373 19.6009 9.84373L20.0111 9.98956C20.0248 9.99412 20.0339 9.99868 20.043 10.0032L20.444 10.1719C20.4577 10.1764 20.4668 10.1855 20.4759 10.1901L20.8679 10.3815C20.877 10.3906 20.8861 10.3952 20.8998 10.3997L21.2735 10.6185C21.2826 10.623 21.2962 10.6321 21.3054 10.6367L21.6654 10.8782C21.6745 10.8873 21.6836 10.8919 21.6927 10.901L22.0391 11.1608C22.0482 11.1699 22.0573 11.179 22.0664 11.1836L22.3946 11.4707C22.4037 11.4752 22.4128 11.4844 22.4219 11.4935L22.7318 11.7988C22.7409 11.8079 22.75 11.817 22.7591 11.8216L23.0462 12.1452C23.0554 12.1543 23.0645 12.1634 23.069 12.1725L23.3379 12.5143C23.347 12.5234 23.3561 12.5325 23.3607 12.5416L23.6068 12.8971C23.6159 12.9062 23.6205 12.9199 23.6296 12.929L23.862 13.3118C23.8666 13.3255 23.8757 13.3346 23.8802 13.3437L24.0853 13.7448C24.0944 13.7539 24.099 13.7676 24.1035 13.7767L24.2858 14.1868C24.2904 14.2005 24.2949 14.2096 24.2995 14.2233L24.4499 14.6426C24.4545 14.6562 24.459 14.6699 24.4636 14.679L24.5866 15.112C24.5912 15.1211 24.5957 15.1347 24.6003 15.1484L24.696 15.5859C24.7005 15.595 24.7005 15.6087 24.7051 15.6224L24.7735 16.0644C24.7735 16.0781 24.7735 16.0872 24.778 16.1009L24.819 16.5475C24.819 16.5612 24.819 16.5703 24.819 16.584L24.8281 17.0351C24.8281 17.0442 24.8281 17.0579 24.8281 17.0716L24.8099 17.5182C24.8099 17.5319 24.8099 17.5456 24.8099 17.5547L24.7598 18.0013C24.7598 18.015 24.7598 18.0286 24.7552 18.0377L24.6823 18.4798C24.6276 18.7942 24.3268 19.0039 24.0124 18.9492C23.6979 18.8991 23.4883 18.5983 23.543 18.2884L23.6205 17.8463L23.6114 17.8828L23.6615 17.4362L23.6569 17.4726L23.6752 17.026V17.0625L23.666 16.6113V16.6523L23.625 16.2057L23.6296 16.2422L23.5612 15.7956L23.5703 15.832L23.4701 15.3945L23.4792 15.431L23.3561 15.0026L23.3653 15.0345L23.2103 14.6152L23.224 14.6471L23.0462 14.237L23.0599 14.2734L22.8548 13.8724L22.8731 13.9043L22.6407 13.5215L22.6589 13.5534L22.4128 13.1979L22.431 13.2252L22.1621 12.8834L22.1849 12.9108L21.8978 12.5918L21.9206 12.6146L21.6107 12.3138L21.638 12.3366L21.3099 12.054L21.3373 12.0768L20.9909 11.8125L21.0228 11.8353L20.6582 11.5937L20.6901 11.612L20.3164 11.3932L20.3483 11.4114L19.9564 11.2155L19.9929 11.2291L19.5918 11.0605L19.6237 11.0742L19.2136 10.9284L19.25 10.9375L18.8308 10.819C18.5254 10.7324 18.3477 10.4134 18.4343 10.1081C18.5209 9.80271 18.8444 9.62954 19.1498 9.71613Z" fill="white"/>
</svg>
